<svg id="Layer_1" data-name="Layer 1" xmlns="http://www.w3.org/2000/svg" viewBox="0 0 845.25 230.08"><defs><style>.cls-1{fill:#b70106;}</style></defs><path d="M292.37,556V431.19h55.08c24.44,0,40,17.86,40,40.42,0,22.75-15.6,39.1-40,39.1H318.5V556Zm50.94-66.55c15,0,21.25-7.71,21.25-18.61,0-10.34-6.21-18.05-21.25-18.05H318.5v36.66Z" transform="translate(-75.21 -384.96)"/><path d="M447.84,556a35.7,35.7,0,0,1-1.5-8.27c-5.83,6.39-15.61,10.71-28,10.71-21.06,0-30.83-10.34-30.83-25.38,0-26.69,17.85-29.7,42.48-33.08,12.22-1.69,15.6-4.14,15.6-10.53,0-6-6-9.59-15.6-9.59-11.09,0-15.6,5.46-16.73,13.73H390.5c.38-19.18,10.91-32.53,40.61-32.53,29.33,0,39.48,13.16,39.48,36.48V556Zm-1.69-45.31c-2.45,2.45-6.77,3.76-15.79,5.46-13.91,2.63-18.43,6.57-18.43,14.47,0,7,4.14,10.34,11.85,10.34,12.59,0,22-9.21,22.18-20.11Z" transform="translate(-75.21 -384.96)"/><path d="M481.3,556V463.53h22.94v11.09c8.08-12.41,17.48-13.54,27.45-13.54h3.19v25a40.7,40.7,0,0,0-6.77-.57c-15,0-22.37,7.52-22.37,22.37V556Z" transform="translate(-75.21 -384.96)"/><path d="M600.12,556l-.19-11.28c-5.83,9.4-14.48,13.72-25.76,13.72-23.31,0-40-18.42-40-49.63,0-28,14.1-47.75,38-47.75,11.46,0,20.49,4.7,27.44,14.48V429.69h24.06V556Zm.37-44c0-20.12-7-30.08-20.49-30.08-14.29,0-21,9.59-21,28.58,0,16.54,8.64,28,20.86,28C591.47,538.54,600.49,527.63,600.49,512Z" transform="translate(-75.21 -384.96)"/><path d="M694.49,556v-13c-6.39,10.52-16,15.41-28.76,15.41-18.43,0-31.4-13.72-31.4-34V463.53h24.44v57.15c0,11.65,5.27,17.29,15.61,17.29,12.4,0,19-8.83,19-21.05V463.53h24.25V556Z" transform="translate(-75.21 -384.96)"/><path class="cls-1" d="M792.81,543.61c-3.38,8.27-13.35,13.16-25.38,13.16-30.45,0-41-23.31-41-47.56,0-28.76,18-48.13,40.42-48.13,11.65,0,20.11,4.52,25.94,13.92V463.53h24.44V557c0,27.82-20.3,42.86-46.06,42.86S726.45,585,726.45,561.09H749.2c0,11.1,8.08,17.68,20.3,17.68,13,0,23.31-7.71,23.31-19.93Zm.75-31.58c0-20.12-6.95-29.7-20.86-29.7-13.73,0-20.87,9.21-20.87,28.2,0,16.54,8.84,27.07,20.87,27.07C784.54,537.6,793.56,527.63,793.56,512Z" transform="translate(-75.21 -384.96)"/><path class="cls-1" d="M825.9,509.77c0-29.32,18.24-48.69,47.56-48.69,28.95,0,47,19.18,47,48.69,0,29.33-18.24,48.69-47,48.69C843.57,558.46,825.9,538.54,825.9,509.77Zm69.93,0c0-18.79-7.52-28-22.37-28s-22.37,9.22-22.37,28,7.52,28.2,22.37,28.2S895.83,528.57,895.83,509.77Z" transform="translate(-75.21 -384.96)"/><path d="M239.47,535.89c-4,1.43-48.07,16.29-77.87-8.93A60.64,60.64,0,0,1,146.28,507a44.52,44.52,0,0,0,2.55,25c6.83,16.46,21.51,22.89,24.66,24.19q-4,12.16-8,24.33c-32.84-31.68-50.28-60.16-59.26-77.4-6.4-12.29-11-23.67-12.27-38-.67-7.58-2.09-26.49,8.87-46.39a77.46,77.46,0,0,1,27.61-28.61c-6.37,1.06-28.69,5.53-43,25.21-9.06,12.46-10.69,25.23-11.63,33.45-2.24,19.43,1.89,37.88,11.24,59,22.34,50.4,63.36,90.73,81.32,107.24Z" transform="translate(-75.21 -384.96)"/><path class="cls-1" d="M262.75,451.2c-17.17,2.51-30.73-2.39-33.61-10.61-2.08-6,.61-16,5.82-17.28,1-.23,3.24-.47,6.7,2.31a37.12,37.12,0,0,0-7.34-16.81c-10-12.58-28.37-17.46-47.36-13.4l9.12-7.35a75.1,75.1,0,0,0-37.29-1.36c-4.69,1.05-36.55,8.76-49.83,39.2-7.78,17.84-5.25,34.49-3.65,41.76a95.79,95.79,0,0,1,14.19-22c24.35-28.2,58.57-33.69,70.82-35-9.68,8.31-4.8,14.16.75,20.06,4.21,4.48,7.15,7.82,9.6,10.27,8.72,8.7,16.3,16.73,21.82,24.52.26.37.38.55.44.62,9.15,10.8,8.22,20.83-3.6,28.15-2.52,1.56-7.22-.38-10.91-.71h0L179,480.42a19.83,19.83,0,0,1-11.63-4.06c-8.92-7-7.37-19.25-7.28-19.9-3.16,3-10.92,11.18-12.37,23.58-2,16.87,9.16,29.21,13.39,33.89,21.67,24,56.27,19,59.6,18.51,7.69-1.23,21.46-3.43,32.24-15.38,10.51-11.65,11.76-25.45,12-30.21-4.68,3.55-10.32,3.39-13.06.54a8.14,8.14,0,0,1-1.91-6c2.41.19,7.66.24,11.7-3.13C267.9,473.08,269.09,461.58,262.75,451.2Z" transform="translate(-75.21 -384.96)"/></svg>