<svg width="346" height="346" viewBox="0 0 346 346" fill="none" xmlns="http://www.w3.org/2000/svg">
<rect width="346" height="346" rx="60" fill="white"/>
<path d="M243.541 209.849C239.437 211.316 194.218 226.564 163.64 200.686C157.026 195.033 151.671 188.056 147.921 180.205C146.312 188.83 147.22 197.735 150.537 205.858C157.545 222.747 172.608 229.345 175.84 230.678C173.104 238.997 170.368 247.318 167.632 255.643C133.935 223.137 116.04 193.914 106.826 176.224C100.259 163.614 95.5393 151.937 94.2361 137.233C93.5487 129.455 92.0916 110.052 103.337 89.6332C110.066 77.5496 119.831 67.4308 131.668 60.277C125.131 61.3646 102.229 65.9512 87.5461 86.1445C78.2498 98.9295 76.5773 112.033 75.6127 120.467C73.3143 140.404 77.552 159.335 87.1459 181.006C110.069 232.72 152.158 274.102 170.587 291.043L243.541 209.849Z" fill="black"/>
<path d="M267.429 122.95C249.811 125.526 235.897 120.498 232.942 112.063C230.808 105.907 233.568 95.646 238.914 94.3326C239.94 94.0966 242.238 93.8503 245.788 96.7029C244.76 90.4139 242.171 84.4833 238.257 79.4544C227.996 66.5463 209.147 61.539 189.662 65.7049L199.02 58.1632C186.586 54.4864 173.426 54.0065 160.757 56.7677C155.945 57.8451 123.254 65.7562 109.627 96.9902C101.644 115.295 104.24 132.38 105.882 139.839C109.68 131.684 114.579 124.088 120.442 117.266C145.427 88.33 180.54 82.6968 193.109 81.3527C183.177 89.8794 188.184 95.882 193.879 101.936C198.199 106.533 201.215 109.96 203.729 112.474C212.677 121.401 220.454 129.64 226.118 137.633C226.385 138.013 226.508 138.198 226.57 138.269C235.959 149.351 235.004 159.643 222.876 167.154C220.29 168.754 215.468 166.764 211.681 166.425L181.494 152.932C177.175 152.846 172.995 151.386 169.561 148.766C160.408 141.584 161.999 129.014 162.091 128.347C158.849 131.425 150.886 139.819 149.398 152.542C147.346 169.852 158.797 182.514 163.138 187.316C185.373 211.942 220.875 206.812 224.292 206.309C232.183 205.047 246.312 202.789 257.373 190.528C268.157 178.574 269.44 164.414 269.686 159.53C264.884 163.172 259.097 163.008 256.285 160.084C255.566 159.239 255.022 158.26 254.686 157.203C254.349 156.146 254.227 155.032 254.325 153.927C256.798 154.122 262.185 154.174 266.331 150.716C272.713 145.401 273.934 133.601 267.429 122.95Z" fill="#B70106"/>
</svg>
