<?xml version="1.0" standalone="no"?>
<!DOCTYPE svg PUBLIC "-//W3C//DTD SVG 20010904//EN"
 "http://www.w3.org/TR/2001/REC-SVG-20010904/DTD/svg10.dtd">
<svg version="1.0" xmlns="http://www.w3.org/2000/svg"
 width="1178.000000pt" height="1178.000000pt" viewBox="0 0 1178.000000 1178.000000"
 preserveAspectRatio="xMidYMid meet">
<metadata>
Created by potrace 1.14, written by Peter Selinger 2001-2017
</metadata>
<g transform="translate(0.000000,1178.000000) scale(0.100000,-0.100000)"
fill="#000000" stroke="none">
<path d="M5838 11775 c-2 -1 -41 -6 -88 -9 -47 -4 -94 -9 -105 -11 -11 -2 -42
-6 -70 -9 -27 -3 -60 -8 -71 -10 -12 -2 -37 -7 -55 -10 -19 -3 -51 -8 -73 -11
-49 -8 -63 -12 -104 -24 -18 -5 -35 -10 -37 -10 -3 0 -18 -2 -33 -5 -15 -4
-38 -9 -52 -12 -28 -6 -38 -9 -60 -16 -8 -3 -85 -28 -170 -57 -185 -61 -168
-55 -205 -70 -16 -7 -34 -14 -40 -15 -5 -2 -23 -9 -40 -16 -16 -7 -43 -19 -60
-25 -16 -7 -75 -34 -130 -60 -55 -26 -102 -46 -104 -45 -2 1 -7 -2 -10 -7 -3
-5 -37 -25 -76 -45 -99 -50 -148 -78 -166 -94 -8 -8 -19 -14 -22 -14 -21 0
-258 -164 -392 -270 -67 -53 -89 -72 -158 -134 -129 -115 -304 -299 -377 -396
-14 -18 -38 -49 -54 -69 -35 -44 -186 -268 -186 -276 0 -3 -15 -29 -33 -58
-18 -29 -46 -79 -63 -112 -16 -33 -32 -62 -37 -63 -4 -2 -5 -7 -2 -12 3 -5 0
-14 -7 -22 -7 -7 -14 -20 -16 -28 -2 -8 -9 -18 -15 -22 -7 -4 -9 -8 -5 -8 5 0
-24 -74 -72 -185 -11 -26 -61 -174 -65 -194 -2 -9 -10 -37 -19 -62 -9 -25 -18
-56 -20 -70 -3 -13 -5 -24 -7 -24 -1 0 -3 -9 -5 -20 -1 -11 -5 -31 -9 -45 -3
-14 -8 -32 -10 -40 -2 -8 -4 -15 -5 -15 -1 0 -4 -11 -6 -25 -2 -14 -5 -36 -8
-50 -2 -14 -6 -41 -10 -60 -3 -19 -8 -44 -10 -56 -9 -43 -20 -134 -32 -269
-10 -115 -6 -615 6 -615 3 0 6 -19 7 -43 2 -49 10 -121 18 -157 3 -14 8 -43
10 -65 10 -75 28 -160 36 -169 4 -5 13 4 20 20 6 16 16 38 21 48 113 215 144
272 169 307 10 14 16 29 12 33 -3 3 -1 6 5 6 7 0 12 7 12 15 0 8 5 15 10 15 6
0 10 5 10 11 0 6 14 31 30 56 17 24 30 48 30 54 0 5 3 9 8 9 4 0 16 16 27 36
10 19 29 48 42 62 13 15 23 31 23 35 0 5 6 14 13 21 6 8 19 24 27 36 8 12 23
31 33 42 9 12 17 24 17 27 0 3 10 17 23 31 12 14 34 41 47 60 13 19 29 40 35
45 6 6 29 33 50 60 22 28 44 55 50 61 5 6 37 41 70 78 98 109 244 255 345 346
52 47 97 88 100 91 27 30 319 254 410 314 25 17 47 32 50 35 10 10 69 50 74
50 2 0 31 17 63 38 70 44 73 46 188 114 50 29 113 63 140 77 28 14 53 29 56
34 3 5 8 8 10 7 9 -4 89 33 89 41 0 5 6 9 13 9 8 0 40 13 73 29 86 41 187 87
214 96 11 4 47 19 87 36 23 11 44 19 47 19 2 0 17 5 33 11 15 6 30 11 33 11 3
0 14 5 24 10 18 10 294 106 326 113 8 2 44 13 79 24 35 11 68 18 73 15 4 -3 8
0 8 5 0 6 3 10 8 9 4 -1 27 4 52 11 25 7 52 15 60 16 8 2 64 16 124 30 60 15
119 29 130 31 12 2 68 13 126 25 58 12 114 22 125 24 20 2 93 14 130 21 11 2
40 6 65 9 25 3 56 8 70 11 14 2 47 7 74 9 27 3 52 8 57 11 21 13 4 -7 -72 -84
-45 -45 -78 -82 -75 -82 4 0 -3 -10 -15 -22 -23 -25 -86 -149 -95 -189 -12
-52 -11 -153 1 -199 12 -45 62 -158 75 -170 14 -13 50 -70 50 -80 0 -6 5 -8
10 -5 6 3 10 0 10 -7 0 -7 24 -38 53 -70 28 -31 77 -84 107 -117 30 -34 82
-90 115 -125 33 -35 97 -103 142 -153 101 -111 164 -176 423 -441 225 -229
329 -338 435 -457 39 -44 79 -89 90 -100 11 -12 53 -61 94 -111 41 -49 79 -93
85 -99 6 -5 47 -57 91 -115 44 -58 85 -111 92 -118 7 -7 13 -17 13 -21 0 -4 8
-16 18 -27 9 -10 24 -29 32 -40 8 -12 41 -56 73 -98 31 -42 57 -80 57 -86 0
-5 4 -10 8 -10 13 0 125 -213 125 -237 0 -7 4 -13 9 -13 5 0 6 -5 3 -10 -4 -6
-2 -16 4 -23 37 -45 50 -314 20 -407 -19 -61 -20 -65 -20 -67 1 -9 -51 -108
-82 -156 -83 -129 -326 -337 -427 -365 -23 -7 -154 -10 -164 -4 -5 3 -27 7
-49 8 -21 2 -44 7 -51 11 -6 5 -23 8 -38 7 -16 0 -28 2 -28 5 0 4 -8 7 -17 7
-10 1 -36 4 -58 8 -22 4 -56 9 -75 12 -19 3 -57 16 -85 29 -27 13 -57 25 -65
27 -8 2 -21 9 -28 16 -8 7 -18 10 -23 7 -5 -4 -9 -1 -9 4 0 6 -7 11 -15 11 -8
0 -30 9 -49 19 -19 11 -37 17 -40 14 -3 -4 -6 0 -6 7 0 7 -2 11 -6 8 -3 -3
-32 7 -65 23 -32 16 -61 29 -63 29 -2 0 -47 20 -100 45 -53 25 -99 45 -101 45
-2 0 -48 20 -101 45 -53 25 -99 45 -102 45 -4 0 -34 13 -67 29 -33 16 -80 38
-105 49 -97 43 -147 65 -195 87 -49 23 -125 57 -135 60 -8 3 -52 22 -114 49
-32 15 -79 29 -105 31 -92 8 -214 31 -236 44 -5 3 -14 6 -20 7 -25 5 -131 48
-136 56 -3 5 -12 10 -20 12 -18 3 -103 56 -107 67 -2 5 -8 9 -13 9 -6 0 -28
17 -51 38 -63 57 -81 75 -108 111 -14 17 -35 44 -48 59 -32 39 -118 218 -137
287 -25 93 -26 98 -29 125 -2 14 -6 36 -9 50 -7 28 -19 128 -18 148 1 16 2 40
2 82 0 19 1 54 2 78 2 23 0 42 -3 42 -5 0 -64 -62 -185 -194 -47 -50 -235
-335 -239 -360 -1 -6 -9 -22 -19 -36 -9 -13 -17 -31 -17 -39 0 -8 -6 -22 -13
-30 -22 -26 -107 -275 -122 -356 -3 -16 -8 -39 -10 -50 -23 -100 -30 -182 -29
-345 0 -80 3 -165 6 -190 4 -25 9 -63 12 -85 10 -67 36 -176 64 -260 14 -44
27 -82 27 -85 11 -43 101 -234 169 -355 27 -49 129 -200 137 -203 5 -2 9 -8 9
-14 0 -13 181 -238 191 -238 5 0 9 -4 9 -10 0 -5 12 -22 28 -38 171 -182 259
-266 359 -344 38 -29 70 -55 73 -58 11 -12 218 -150 270 -179 30 -17 116 -60
190 -96 74 -36 143 -70 152 -75 10 -6 25 -10 33 -10 8 0 15 -5 15 -11 0 -5 3
-8 8 -5 4 2 23 -3 42 -12 19 -8 37 -16 40 -17 3 0 55 -17 116 -37 97 -32 204
-63 254 -73 8 -2 15 -4 15 -5 0 -2 19 -6 60 -13 17 -3 37 -8 45 -11 14 -5 42
-10 110 -21 63 -10 87 -14 115 -19 17 -3 53 -8 80 -11 28 -3 64 -7 80 -9 206
-28 722 -28 915 -2 14 2 52 7 85 11 33 4 67 8 75 10 8 1 35 6 60 10 25 4 54 9
65 12 11 2 31 6 45 8 24 4 47 9 100 20 60 13 71 15 90 20 11 3 29 7 39 9 90
20 328 99 396 130 49 23 110 50 115 51 14 3 136 69 141 77 3 5 10 9 15 9 9 0
160 93 199 123 111 86 194 157 265 228 88 88 98 99 165 183 22 28 42 52 45 55
3 3 23 32 45 65 22 33 43 62 46 65 7 6 53 84 71 120 7 14 15 27 19 30 8 6 71
141 75 159 1 8 9 18 16 22 7 5 9 9 4 9 -6 0 -5 5 2 12 7 7 12 20 12 30 0 10 5
18 12 18 6 0 9 3 5 6 -3 4 1 23 9 43 16 37 71 201 79 236 58 249 67 300 80
440 3 33 7 73 10 89 6 44 -3 49 -38 23 -152 -112 -401 -141 -544 -62 -61 33
-123 91 -123 115 0 5 -4 10 -10 10 -5 0 -10 8 -10 18 0 10 -4 22 -9 28 -13 14
-27 83 -30 142 l-2 54 55 -4 c31 -1 56 1 56 6 0 5 6 3 13 -3 8 -6 16 -8 19 -6
3 3 29 7 57 10 126 10 266 61 365 134 61 44 144 127 157 157 3 5 15 27 29 49
14 22 25 42 25 45 0 3 3 10 7 16 11 16 45 114 58 163 20 77 25 134 24 276 -2
124 -8 178 -39 312 -3 12 -19 60 -35 105 -17 46 -31 87 -33 92 -1 5 -19 40
-39 79 -21 38 -38 74 -38 78 0 5 -4 9 -10 9 -5 0 -10 6 -10 13 0 14 -8 14
-107 3 -175 -20 -428 -25 -558 -12 -38 4 -92 9 -120 11 -27 2 -50 5 -50 5 0 3
-37 10 -135 27 -19 3 -41 11 -49 17 -8 6 -16 10 -18 8 -12 -11 -233 63 -245
82 -4 6 -8 7 -8 3 0 -9 -96 40 -118 61 -7 6 -20 12 -28 12 -8 0 -14 5 -14 10
0 6 -5 10 -10 10 -14 0 -64 43 -138 119 -65 67 -137 194 -146 257 -3 16 -7 40
-11 54 -10 43 -8 212 5 280 6 36 13 74 15 85 5 31 40 124 67 178 38 79 42 87
50 87 5 0 8 4 8 10 0 5 20 30 45 54 25 25 45 43 45 40 0 -3 12 3 28 14 43 31
106 40 182 27 39 -7 157 -61 178 -82 20 -20 56 -38 48 -24 -4 6 -9 24 -12 39
-9 55 -46 190 -75 275 -41 121 -150 346 -186 385 -7 7 -13 18 -13 23 0 6 -6
16 -12 23 -7 8 -20 24 -28 36 -8 12 -22 30 -30 40 -8 11 -26 34 -40 52 -44 57
-213 221 -280 271 -36 26 -74 55 -84 64 -11 9 -35 25 -55 36 -20 12 -38 24
-41 28 -3 3 -23 15 -45 26 -22 11 -75 39 -117 61 -43 22 -113 54 -155 70 -43
16 -87 33 -98 37 -40 16 -131 42 -226 65 -92 23 -161 36 -289 55 -234 34 -688
19 -910 -30 -14 -3 -43 -8 -65 -11 l-40 -6 50 38 c28 21 52 40 55 43 13 15
119 101 124 101 3 0 18 12 34 28 16 15 66 56 111 91 79 63 87 78 45 86 -11 2
-20 4 -21 5 -2 2 -12 4 -23 5 -11 1 -22 4 -25 5 -3 1 -9 4 -15 5 -5 1 -11 4
-12 5 -2 1 -12 4 -23 6 -11 2 -27 5 -35 7 -66 17 -83 21 -155 33 -16 3 -47 10
-67 15 -20 5 -40 8 -45 7 -7 -1 -35 3 -114 17 -8 2 -49 6 -90 10 -41 4 -87 9
-104 12 -32 5 -551 13 -557 8z"/>
<path d="M3746 11503 c-1 -1 -20 -5 -42 -9 -21 -3 -77 -15 -124 -26 -47 -11
-93 -21 -103 -23 -9 -2 -21 -6 -25 -9 -5 -3 -23 -8 -41 -11 -38 -7 -309 -95
-366 -120 -63 -27 -89 -38 -100 -41 -5 -1 -31 -12 -57 -23 -26 -12 -51 -21
-54 -21 -4 1 -10 -2 -13 -7 -3 -4 -39 -24 -80 -43 -41 -19 -110 -56 -154 -82
-43 -27 -80 -48 -83 -48 -11 0 -272 -177 -294 -200 -3 -3 -22 -18 -43 -33 -20
-16 -48 -38 -61 -50 -13 -12 -47 -42 -76 -66 -55 -47 -210 -199 -210 -206 0
-2 -12 -17 -28 -33 -50 -53 -85 -95 -154 -187 -37 -49 -72 -94 -76 -100 -4 -5
-30 -46 -57 -90 -27 -44 -52 -82 -55 -85 -16 -15 -173 -341 -204 -425 -8 -22
-24 -65 -36 -95 -35 -94 -82 -257 -84 -292 0 -10 -3 -18 -6 -18 -4 0 -7 -6 -7
-12 0 -7 -4 -26 -7 -43 -4 -16 -9 -43 -12 -60 -3 -16 -8 -37 -11 -45 -3 -8 -7
-22 -8 -30 -1 -8 -5 -37 -10 -65 -5 -27 -9 -59 -11 -70 -1 -11 -3 -20 -4 -20
-1 0 -3 -11 -5 -25 -1 -14 -6 -47 -10 -75 -4 -27 -8 -62 -10 -76 -1 -14 -6
-52 -10 -85 -7 -58 -9 -74 -23 -229 -15 -171 -7 -669 14 -830 2 -22 7 -56 9
-75 2 -19 7 -57 11 -85 3 -27 7 -59 9 -70 2 -19 6 -41 21 -120 3 -16 7 -39 8
-50 1 -11 9 -47 16 -80 8 -33 15 -68 16 -77 1 -10 2 -19 3 -20 2 -2 5 -14 7
-27 2 -14 11 -50 19 -80 8 -31 17 -72 20 -91 3 -19 10 -40 16 -46 5 -7 8 -16
7 -20 -2 -5 3 -27 9 -49 21 -69 55 -190 55 -195 0 -3 3 -9 7 -15 7 -8 22 -58
23 -75 0 -3 9 -27 20 -55 11 -27 22 -57 23 -65 2 -8 4 -16 5 -17 2 -2 3 -6 5
-10 1 -5 4 -15 7 -23 3 -8 14 -37 23 -65 33 -94 168 -430 178 -442 5 -7 6 -13
3 -13 -4 0 0 -12 8 -27 8 -16 25 -50 36 -78 12 -27 30 -68 40 -90 75 -162 100
-217 100 -225 0 -6 5 -10 10 -10 6 0 10 -6 10 -13 0 -7 49 -109 109 -227 162
-319 175 -345 182 -350 3 -3 18 -30 33 -60 16 -30 35 -63 44 -72 8 -10 11 -18
7 -18 -4 0 -1 -8 7 -17 8 -10 29 -43 45 -73 16 -30 42 -74 56 -97 15 -24 27
-47 27 -53 0 -5 5 -10 11 -10 5 0 7 -4 4 -10 -3 -5 -1 -10 4 -10 6 0 11 -7 11
-15 0 -8 5 -15 10 -15 6 0 10 -5 10 -10 0 -6 27 -54 60 -108 33 -53 64 -103
68 -109 61 -104 336 -520 435 -660 19 -26 67 -95 108 -153 40 -58 78 -111 84
-117 13 -17 24 -30 171 -228 69 -93 137 -181 150 -196 13 -14 24 -30 24 -36 0
-6 4 -13 8 -15 4 -1 23 -23 42 -48 19 -25 37 -47 40 -50 3 -3 24 -27 45 -55
22 -27 45 -55 50 -62 6 -6 22 -27 36 -45 35 -44 282 -342 289 -348 3 -3 21
-25 41 -50 20 -25 54 -64 75 -87 22 -24 57 -63 79 -89 85 -98 111 -128 140
-159 17 -18 64 -70 105 -116 41 -46 84 -93 95 -105 11 -12 67 -72 125 -134
332 -356 752 -773 1130 -1123 l62 -58 41 48 c23 26 56 61 72 79 25 27 126 139
160 178 16 18 179 200 190 212 5 6 42 46 80 89 39 43 91 101 116 129 26 28 60
66 75 84 16 19 45 51 64 72 19 20 67 73 105 116 124 139 196 219 270 300 17
18 44 48 60 66 43 48 176 198 200 224 11 12 47 52 80 89 33 37 75 84 94 104
18 20 56 62 85 95 28 32 62 70 76 85 14 15 59 64 100 110 41 46 86 96 99 110
12 14 51 57 85 95 33 38 75 84 91 102 17 17 57 62 90 100 33 37 74 82 90 100
17 18 57 63 90 100 56 64 106 120 165 184 14 15 54 60 90 100 36 41 79 88 95
105 17 18 55 60 85 95 30 35 66 75 80 90 14 15 54 60 90 100 36 40 74 82 85
94 11 12 52 57 90 101 39 43 81 90 95 105 76 84 167 186 183 204 30 35 96 108
134 149 19 20 30 37 25 37 -6 0 -14 -5 -17 -10 -4 -6 -11 -8 -16 -4 -5 3 -16
0 -24 -6 -8 -7 -15 -10 -15 -7 0 3 -26 -4 -57 -15 -32 -11 -65 -21 -73 -23 -8
-2 -55 -14 -105 -28 -49 -14 -101 -28 -115 -30 -14 -3 -52 -12 -85 -20 -54
-14 -214 -47 -305 -62 -19 -3 -44 -8 -55 -10 -11 -2 -40 -6 -65 -9 -25 -3 -54
-7 -65 -10 -11 -2 -49 -7 -85 -11 -36 -4 -78 -9 -95 -11 -32 -4 -107 -10 -250
-20 -114 -9 -526 -8 -625 0 -143 13 -155 14 -210 21 -68 8 -83 11 -140 20 -25
4 -56 9 -70 10 -14 2 -34 6 -45 8 -11 3 -65 15 -121 26 -111 23 -152 34 -329
92 -260 86 -486 193 -710 337 -65 42 -204 140 -215 152 -3 3 -30 25 -60 50
-217 177 -426 410 -580 643 -33 51 -64 97 -68 103 -17 24 -33 52 -63 109 -17
33 -40 72 -50 86 -10 14 -16 28 -13 31 2 3 -2 11 -11 18 -8 7 -15 19 -15 27 0
8 -5 11 -11 8 -6 -4 -8 -13 -5 -20 2 -7 2 -16 -2 -20 -4 -4 -8 -23 -8 -43 -1
-20 -3 -37 -4 -37 -3 0 -10 -69 -13 -135 -1 -36 -6 -71 -10 -77 -5 -7 -5 -13
0 -13 4 0 8 -51 9 -113 0 -104 6 -190 20 -277 9 -60 11 -74 18 -110 4 -19 8
-42 9 -50 2 -8 6 -21 10 -27 5 -7 6 -13 3 -13 -2 0 0 -15 6 -32 5 -18 11 -42
13 -53 2 -11 22 -74 46 -140 52 -147 143 -331 220 -448 33 -49 59 -91 59 -95
0 -4 9 -13 20 -20 11 -7 20 -17 20 -23 0 -6 6 -16 13 -23 6 -7 28 -32 47 -57
69 -86 284 -294 365 -351 5 -4 33 -26 62 -48 29 -22 56 -40 61 -40 5 0 17 -9
27 -20 10 -11 22 -20 26 -20 4 0 27 -12 51 -27 69 -45 80 -51 131 -75 26 -13
47 -26 47 -30 0 -5 6 -8 13 -8 7 0 37 -11 65 -25 29 -14 57 -25 63 -25 7 0 9
-9 5 -22 -4 -13 -8 -30 -10 -38 -3 -8 -12 -37 -21 -65 -10 -27 -19 -54 -20
-60 -1 -5 -5 -17 -8 -25 -9 -23 -118 -354 -121 -365 -1 -5 -4 -14 -7 -20 -6
-9 -21 -67 -20 -72 0 -2 -8 -23 -19 -49 -11 -25 -22 -55 -24 -67 -5 -27 -145
-447 -153 -459 -5 -9 -98 80 -294 277 -107 109 -317 325 -314 325 1 0 -35 38
-79 85 -45 46 -110 117 -146 157 -36 39 -76 84 -90 99 -14 15 -47 53 -75 85
-27 31 -55 62 -60 68 -10 11 -141 161 -157 180 -39 47 -55 67 -86 105 -51 61
-94 112 -114 135 -10 11 -20 28 -24 38 -3 10 -12 18 -20 18 -8 0 -14 4 -14 8
0 10 -65 96 -97 130 -13 13 -23 26 -23 30 0 4 -14 21 -30 39 -17 18 -30 36
-30 42 0 5 -3 11 -8 13 -4 1 -23 23 -42 48 -19 25 -37 47 -40 50 -3 3 -62 82
-130 175 -69 94 -127 172 -130 175 -3 3 -14 19 -26 35 -31 45 -103 150 -172
248 -34 48 -62 92 -62 97 0 6 -4 10 -8 10 -5 0 -14 11 -20 25 -7 14 -17 31
-23 38 -20 23 -99 149 -99 158 0 5 -4 9 -8 9 -5 0 -14 10 -21 23 -14 26 -27
47 -64 104 -15 24 -27 47 -27 53 0 5 -3 10 -8 10 -4 0 -16 17 -27 37 -11 21
-23 41 -28 44 -7 5 -19 26 -78 137 -13 23 -27 42 -31 42 -4 0 -8 4 -8 10 0 5
-31 62 -68 127 -62 106 -97 169 -183 328 -15 28 -65 124 -111 215 -46 91 -87
168 -91 171 -5 3 -8 9 -8 13 1 3 -15 41 -35 83 -19 43 -42 94 -51 113 -8 19
-21 47 -29 63 -9 15 -12 27 -7 27 4 0 3 4 -3 8 -11 8 -74 161 -74 180 0 7 -5
12 -12 12 -6 0 -9 3 -5 6 3 4 -1 23 -9 43 -9 20 -17 41 -18 46 -4 12 -15 43
-26 70 -5 11 -14 38 -20 60 -6 22 -15 49 -20 60 -11 27 -60 203 -67 240 -3 17
-9 38 -14 48 -5 9 -8 17 -5 17 2 0 -2 28 -11 63 -8 34 -16 71 -17 82 -7 44
-18 101 -23 115 -3 8 -7 33 -8 55 -2 22 -6 56 -10 75 -8 39 -9 51 -19 160 -4
41 -9 86 -11 100 -8 53 -18 292 -17 435 0 205 9 353 34 530 6 44 12 90 13 103
7 48 31 180 34 185 1 1 4 16 7 32 5 37 12 70 14 70 2 0 6 17 15 60 13 57 13
60 15 60 1 0 3 8 5 18 2 10 18 64 35 120 18 56 33 104 33 107 1 5 41 109 76
198 12 28 18 52 13 52 -4 0 -2 4 3 8 6 4 19 27 31 52 55 122 139 286 148 292
6 4 8 8 4 8 -8 0 120 215 158 267 13 17 24 34 24 38 0 3 5 11 10 18 6 7 53 68
105 137 51 69 106 139 120 155 15 17 52 59 83 95 67 75 239 248 306 305 25 22
62 54 81 72 20 17 50 42 67 55 17 12 41 32 54 44 12 12 29 24 38 27 9 4 16 11
16 17 0 5 4 10 10 10 5 0 36 19 67 43 32 24 69 51 83 60 85 58 132 87 140 87
6 0 10 4 10 9 0 5 8 12 18 14 9 3 4 4 -11 4 -15 -1 -29 -3 -31 -4z"/>
</g>
</svg>
