<svg width="48" height="58" viewBox="0 0 48 58" fill="none" xmlns="http://www.w3.org/2000/svg">
<path fill-rule="evenodd" clip-rule="evenodd" d="M7.02991 7.03662C11.5306 2.53113 17.6351 0 24.0002 0C30.3654 0 36.4698 2.53113 40.9706 7.03662C45.4714 11.542 48 17.6527 48 24.0244C48 30.396 45.4714 36.5067 40.9706 41.0122L24.0002 58L7.02991 41.0122C4.80115 38.7814 3.0332 36.1331 1.82703 33.2183C0.62085 30.3035 0 27.1793 0 24.0244C0 20.8694 0.62085 17.7454 1.82703 14.8306C3.0332 11.9158 4.80115 9.26733 7.02991 7.03662ZM7.94836 13.4771C9.2229 11.0591 11.6769 9.36963 14.3695 9.05652C16.3518 8.82605 18.3334 9.30371 20.031 10.421C20.6237 10.8112 21.1038 11.262 24.0126 14.1608C27.1144 17.2517 27.3337 17.4858 27.5392 17.922C27.7361 18.3403 27.7582 18.4475 27.7582 18.9854C27.7582 19.2413 27.7518 19.4042 27.7257 19.546C27.6991 19.6903 27.652 19.8129 27.5702 19.9895C27.3453 20.4756 26.8966 20.9338 26.394 21.1907C26.0649 21.359 25.9612 21.3778 25.3627 21.3778C24.2948 21.3778 24.2423 21.3433 22.1533 19.2665L20.403 17.5262L16.2124 21.7112L12.0219 25.8961L10.5206 24.4012C8.87561 22.7631 8.44397 22.2439 7.95203 21.3103C7.26782 20.0125 7.00122 18.9143 7 17.3904C6.9989 15.8569 7.25842 14.7861 7.94836 13.4771ZM27.9816 11.1459C29.1478 10.3949 30.4276 9.93054 31.7263 9.78699C32.0325 9.75305 32.5972 9.74011 32.9814 9.75806C36.8784 9.94031 40.0425 12.6407 40.8729 16.4932C41.0421 17.2787 41.0425 18.9629 40.8734 19.7469C40.6965 20.567 40.4623 21.226 40.0856 21.9628C39.5021 23.1042 39.0433 23.641 37.22 25.3158L36.1686 26.2815L34.8536 24.9786C33.6592 23.7953 33.491 23.6532 33.0189 23.4293C32.5492 23.2065 32.4336 23.1799 31.8153 23.1525C31.251 23.1273 31.051 23.1464 30.6729 23.2611C29.8119 23.5223 29.0719 24.1382 28.6948 24.9073C28.5039 25.297 28.3237 25.9291 28.3237 26.2098C28.3237 26.2937 28.319 26.34 28.286 26.3652C28.2516 26.3916 28.1866 26.3953 28.0646 26.3953C27.4086 26.3953 26.3975 26.895 25.9012 27.4645C25.5551 27.8618 25.2148 28.5905 25.1127 29.1537L25.0283 29.6185L24.689 29.6599C23.4482 29.8116 22.4769 30.5891 22.0012 31.8115C21.7783 32.384 21.7783 33.4321 22.0012 34.0046C22.251 34.6465 22.4286 34.8777 23.5128 35.9724L24.5402 37.0098L23.7687 37.7307C22.8409 38.5975 22.5674 38.7832 22.0048 38.9271C20.3269 39.3564 18.6769 37.8195 19.0084 36.1362C19.0867 35.7389 19.3435 35.1486 19.4727 35.0687C19.51 35.0457 19.5405 35.0004 19.5405 34.968C19.5405 34.9357 19.3684 34.9897 19.158 35.0883C18.9548 35.1833 18.8225 35.2295 18.6284 35.2507C18.5105 35.2635 18.3698 35.2673 18.1764 35.2673C17.6573 35.2673 17.5225 35.2419 17.1636 35.0763C16.6738 34.8503 16.1403 34.3214 15.9319 33.8552C15.7644 33.4803 15.6975 32.6084 15.8054 32.209C15.8452 32.062 15.9805 31.7714 16.1061 31.563L16.3346 31.1841L15.9913 31.3649C15.6808 31.5284 15.5812 31.5458 14.9493 31.5458C14.3195 31.5458 14.2134 31.5275 13.8728 31.3605C13.3716 31.1146 12.8065 30.5055 12.6448 30.0369C12.4781 29.5542 12.4951 28.87 12.6865 28.3558C12.8281 27.9757 13.0128 27.7791 16.6339 24.1545L20.4329 20.3522L21.6002 21.5018C22.6572 22.5426 22.8212 22.6776 23.3333 22.928C24.1594 23.3322 24.6055 23.426 25.5273 23.3901C26.7731 23.3416 27.6245 22.9705 28.5015 22.0938C29.0719 21.5234 29.5284 20.6781 29.6959 19.8824C29.9192 18.8218 29.6812 17.5027 29.1044 16.6027C28.9491 16.3604 28.2032 15.5522 27.2711 14.6161C25.9169 13.2561 25.7131 13.0255 25.7974 12.9481C26.4666 12.3326 27.6329 11.3704 27.9816 11.1459ZM30.3203 26.3766C30.3195 25.9791 30.6129 25.5085 31.0186 25.257C31.291 25.0879 31.9058 25.0897 32.2356 25.2604C32.594 25.4459 35.545 28.4296 35.6729 28.7358C35.8206 29.0892 35.8007 29.4435 35.6119 29.8218C35.2731 30.5009 34.474 30.7355 33.8132 30.3496C33.6669 30.2642 32.854 29.4965 32.0071 28.6437C30.4084 27.0339 30.3214 26.917 30.3203 26.3766ZM27.9423 28.4258C28.024 28.4084 28.1508 28.3827 28.2239 28.3688C28.4222 28.3308 28.7271 28.3934 28.9891 28.526C29.1172 28.5907 29.9291 29.3564 30.7935 30.2277C32.4927 31.9404 32.5592 32.0347 32.5001 32.6488C32.4109 33.5759 31.3094 34.0934 30.516 33.5811C30.3533 33.4761 29.5421 32.7059 28.7135 31.8698C27.1423 30.2845 27.0582 30.1699 27.0613 29.6185C27.0637 29.1761 27.5575 28.5077 27.9423 28.4258ZM24.7152 31.6738C24.8152 31.6519 24.9269 31.6239 24.9635 31.6118C25.0208 31.5929 25.1409 31.6028 25.2766 31.631C25.4301 31.6628 25.6035 31.7181 25.7286 31.7817C25.8124 31.8242 26.1877 32.1658 26.679 32.6404C26.9398 32.8925 27.2333 33.1819 27.533 33.484C29.2323 35.1968 29.2987 35.291 29.2396 35.9053C29.1504 36.8326 28.0483 37.3502 27.2555 36.837C27.0928 36.7317 26.3102 35.9916 25.5164 35.1921C24.0195 33.6849 23.802 33.3951 23.802 32.9081C23.802 32.4185 24.2825 31.769 24.7152 31.6738Z" fill="#01B713"/>
</svg>
