<svg width="48" height="58" viewBox="0 0 48 58" fill="none" xmlns="http://www.w3.org/2000/svg">
<path fill-rule="evenodd" clip-rule="evenodd" d="M7.02987 7.03658C11.5307 2.53113 17.6351 0 24.0003 0C30.3654 0 36.4698 2.53113 40.9706 7.03658C45.4715 11.542 48 17.6527 48 24.0244C48 30.3961 45.4715 36.5067 40.9706 41.0122L24.0003 58L7.02987 41.0122C4.80114 38.7814 3.0332 36.133 1.82701 33.2182C0.620821 30.3034 0 27.1794 0 24.0244C0 20.8694 0.620821 17.7453 1.82701 14.8306C3.0332 11.9158 4.80114 9.26737 7.02987 7.03658ZM17.7076 8.69588C18.0445 8.35841 18.3238 8.19423 18.762 8.07627C20.1944 7.69073 21.6494 8.81767 21.6471 10.3109C21.6462 10.8954 21.4837 11.3542 21.1177 11.806C20.8051 12.1918 20.4964 12.3702 19.6998 12.6251C19.6022 12.6563 18.7466 13.3753 17.6898 14.3141L15.8497 15.9488L15.8493 19.189C15.8491 20.9712 15.8608 22.4292 15.8755 22.4292C15.8902 22.4292 16.1425 22.3663 16.4362 22.2893C17.063 22.1252 18.052 21.9917 18.6417 21.9917C19.3727 21.9917 19.8179 21.7884 20.1385 21.3081C20.2389 21.1578 20.4731 20.6779 20.6589 20.2417C21.0764 19.262 21.3256 18.8358 21.7378 18.3962C22.3679 17.724 23.1447 17.4066 24.2782 17.3579C25.2035 17.3182 25.9269 17.4803 26.8018 17.9235L27.0802 18.0645L29.0413 16.1046L31.0024 14.1447V13.6358C31.0024 13.2932 31.0289 13.0757 31.0835 12.9702C31.1465 12.8486 31.6383 12.5425 33.2854 11.6C34.6198 10.8365 35.481 10.376 35.6078 10.3582C35.8997 10.3173 36.0483 10.4291 37.0565 11.449C38.0243 12.428 38.0951 12.5469 37.9316 12.9185C37.7089 13.425 35.5454 17.1041 35.4115 17.2042C35.2884 17.2961 35.163 17.3191 34.705 17.3334L34.148 17.3509L32.1964 19.2978L30.2447 21.2448L30.4592 21.6712C30.5772 21.9057 30.7389 22.3137 30.8186 22.5779C30.9445 22.9947 30.9641 23.1594 30.9673 23.8238C30.9703 24.4581 30.9501 24.6625 30.8494 25.0159C30.4931 26.2656 29.8101 26.9307 28.168 27.627C27.2523 28.0152 27.055 28.1206 26.7989 28.3577C26.4537 28.6776 26.3981 28.8634 26.3192 29.9615C26.181 31.8859 25.8566 32.9337 25.0839 33.9522C24.2573 35.0418 23.0953 35.6832 21.5305 35.9136C19.8325 36.1636 18.1201 35.7196 16.4818 34.6045C16.2107 34.42 15.9574 34.2494 15.9189 34.2253C15.8649 34.1916 15.8488 34.2572 15.8488 34.5124V34.8433H16.2276C16.5542 34.8433 16.6293 34.8626 16.7728 34.9833C17.0849 35.2459 17.0327 35.7219 16.6712 35.9087C16.4358 36.0304 14.0583 36.0304 13.8229 35.9087C13.4615 35.7219 13.4092 35.2459 13.7214 34.9833C13.8649 34.8626 13.94 34.8433 14.2666 34.8433H14.6453V33.9378V33.0323L14.3127 32.6389C13.6736 31.8832 13.0893 30.8964 12.767 30.0284C12.0254 28.0316 12.2842 25.7129 13.4141 24.23C13.6837 23.8761 14.2217 23.3504 14.5021 23.1667L14.6453 23.0729V20.0714C14.6453 18.4205 14.632 17.0699 14.6158 17.0699C14.5995 17.0699 14.513 17.124 14.4235 17.1901C14.2008 17.3547 13.9285 17.3391 13.6771 17.1473L13.4776 16.9952L13.2907 17.2103C13.0183 17.5237 12.4767 18.3461 12.262 18.7724C11.8592 19.5718 11.5015 20.6823 11.3381 21.6403C11.1734 22.6062 11.1457 23.7546 11.1449 29.6574L11.1441 35.6005L11.0041 35.7669C10.8276 35.9766 10.564 36.034 10.3311 35.9136C10.2807 35.8876 10.2378 35.8739 10.2012 35.8504C9.97362 35.704 9.99169 35.1758 10.0099 28.9217C10.0266 23.1889 10.0213 22.3069 10.18 21.4555C10.2178 21.2526 10.2649 21.0515 10.3239 20.7869C10.6706 19.2307 11.5514 17.4017 12.4181 16.4381L12.6627 16.1661L12.5052 15.9775C12.3496 15.7911 12.3035 15.5531 12.3831 15.3458C12.4026 15.2949 13.4586 14.0838 14.7297 12.6544C16.7611 10.3699 17.0449 10.0289 17.0757 9.83671C17.1342 9.47113 17.3839 9.02018 17.7076 8.69588ZM25.488 22.8864C25.112 22.5105 24.7982 22.3089 24.3393 22.1484C23.9222 22.0025 23.1464 21.9672 22.7218 22.0748C21.7 22.3338 20.82 23.2328 20.5762 24.2669C20.4159 24.9469 20.5455 25.7688 20.9117 26.3934C21.1634 26.8228 21.6616 27.2711 22.1572 27.5142C23.004 27.9296 23.9142 27.9192 24.7726 27.4844C25.0929 27.3222 25.6352 26.8257 25.8559 26.4926C26.5954 25.3766 26.4383 23.8363 25.488 22.8864ZM20.4752 30.8831C20.5507 30.5826 20.4544 30.4573 19.1385 29.1421C17.8637 27.8681 17.8346 27.8433 17.6139 27.8433C17.1777 27.8433 16.8799 28.2823 17.0712 28.6433C17.117 28.7297 17.7041 29.3479 18.3758 30.0172C19.592 31.2288 19.7476 31.3487 20.043 31.3012C20.2045 31.2752 20.432 31.0552 20.4752 30.8831Z" fill="#B70106"/>
</svg>
