<svg width="48" height="58" viewBox="0 0 48 58" fill="none" xmlns="http://www.w3.org/2000/svg">
<path fill-rule="evenodd" clip-rule="evenodd" d="M7.02991 7.03662C11.5306 2.53113 17.6351 0 24.0002 0C30.3654 0 36.4698 2.53113 40.9706 7.03662C45.4714 11.542 48 17.6527 48 24.0244C48 30.396 45.4714 36.5067 40.9706 41.0122L24.0002 58L7.02991 41.0122C4.80115 38.7814 3.0332 36.1331 1.82703 33.2183C0.62085 30.3035 0 27.1793 0 24.0244C0 20.8694 0.62085 17.7454 1.82703 14.8306C3.0332 11.9158 4.80115 9.26733 7.02991 7.03662ZM19.9005 10.6547C20.8531 10.3491 21.8876 10.1337 22.8188 10.0468C23.3831 9.99414 24.3776 9.98413 24.8728 10.026L25.2662 10.0592L25.2471 10.902C25.2312 11.5994 25.2118 11.7753 25.1339 11.9224C25.0094 12.1573 24.4664 12.7634 24.063 13.1176L23.7397 13.4015L23.0635 12.95C21.9585 12.2123 20.6464 11.4434 19.5958 10.9178L19.3944 10.817L19.9005 10.6547ZM26.1237 12.8051C26.4388 12.347 26.5739 11.7448 26.5757 10.7891C26.5762 10.495 26.5792 10.3577 26.5981 10.2992C26.6113 10.2584 26.6323 10.2561 26.6655 10.2659C26.7144 10.2803 26.903 10.3287 27.0845 10.3737C28.0665 10.6165 28.8796 10.9161 29.7917 11.3713C30.6895 11.8193 31.6777 12.4645 32.2892 13.0016L32.4918 13.1796L32.1876 13.2395C31.5828 13.3586 30.4482 13.645 30.053 13.7782C29.4761 13.9725 28.2582 14.5786 27.3168 15.1398L26.5081 15.6217L26.1234 15.2903C26.0641 15.2391 25.9943 15.1797 25.9199 15.1169C25.7292 14.9558 25.5087 14.7728 25.3579 14.651C25.1484 14.4818 24.9447 14.314 24.9053 14.2781C24.8448 14.223 24.9227 14.12 25.3992 13.6244C25.5378 13.4801 25.6794 13.3269 25.8016 13.1902C25.9535 13.0201 26.0753 12.8755 26.1237 12.8051ZM12.8434 16.3326C13.9597 14.4816 15.448 12.9904 17.3326 11.8342C17.6497 11.6396 17.8002 11.5752 17.8931 11.5941C17.9629 11.6084 18.4999 11.8585 19.0864 12.1498C20.1456 12.6759 21.0673 13.2037 22.1281 13.8914L22.6815 14.2502L22.1534 14.5922C21.2115 15.2021 20.2278 15.6772 19.3313 15.955C18.8334 16.1091 18.3706 16.2097 16.3696 16.5983C14.5879 16.9443 13.6901 17.1617 12.7968 17.4634C12.4656 17.5752 12.1842 17.6561 12.1715 17.6434C12.1383 17.6102 12.5088 16.8875 12.8434 16.3326ZM30.2736 15.0808C30.9384 14.8269 32.4613 14.4801 33.5083 14.3441C33.592 14.3333 33.6642 14.3209 33.6685 14.3167C33.6727 14.3125 33.8478 14.5204 34.0576 14.7788C35.4437 16.486 36.4783 18.7471 36.7819 20.7329C36.802 20.8646 36.8258 21.0099 36.8442 21.1152C36.8531 21.1663 36.8608 21.208 36.8662 21.2341C36.8904 21.3528 36.8044 21.2798 36.4039 20.8423C35.5288 19.8859 34.4608 19.0331 33.6606 18.6516C32.9022 18.2902 32.6998 18.2455 31.8325 18.2482C31.0253 18.2506 30.4432 18.3431 29.65 18.595L29.2762 18.7136L28.9812 18.3014C28.6743 17.8726 28.1611 17.2626 27.7334 16.818L27.4845 16.5594L28.0847 16.1993C28.856 15.7366 29.7421 15.2837 30.2736 15.0808ZM19.4402 17.2789C20.6421 16.9305 21.8972 16.3308 23.0474 15.5552C23.4384 15.2915 23.7699 15.0747 23.7842 15.0732C23.797 15.072 23.973 15.2067 24.1986 15.3857C24.5297 15.6486 24.9675 16.0073 25.153 16.1732L25.3795 16.3761L25.0289 16.6249C20.1862 20.0608 16.2003 24.2201 14.3944 27.7227C13.9659 28.5535 13.5927 29.4526 13.4435 30.0132C13.3933 30.2017 13.3359 30.356 13.3158 30.356C13.2471 30.356 12.6572 29.3656 12.3329 28.7056C11.521 27.0535 11.1161 25.4518 11.0104 23.4751C10.9596 22.5251 11.0994 21.0312 11.3239 20.1235C11.4218 19.7277 11.4484 19.564 11.5403 19.4554C11.6251 19.3552 11.7655 19.302 12.0691 19.1562C13.1885 18.6189 14.322 18.3109 17.2875 17.738C18.2252 17.5568 19.194 17.3502 19.4402 17.2789ZM18.296 24.3892C20.2903 22.0729 22.978 19.6782 25.8878 17.6254C26.1373 17.4492 26.3551 17.3052 26.3718 17.3052C26.4506 17.3052 27.4386 18.4055 27.8657 18.9688L28.1068 19.2866L27.6298 19.7559C26.921 20.453 26.5071 21.1486 26.0671 22.382C25.8018 23.1259 25.5465 24.0881 25.0027 26.395C23.8176 31.4221 23.1227 33.813 22.3422 35.5483C22.281 35.6842 22.2478 35.7638 22.1882 35.8026C22.1016 35.859 21.9589 35.8295 21.593 35.7612C19.0334 35.2845 16.5787 33.9741 14.7328 32.0989L14.3909 31.7516L14.4414 31.4381C14.7732 29.3778 16.1172 26.9199 18.296 24.3892ZM30.0673 19.8431C30.1367 19.7847 30.5526 19.681 31.0962 19.5869C32.2214 19.3922 32.9272 19.5933 34.0251 20.4213C34.6117 20.8638 35.6741 21.9371 36.4429 22.8641L36.989 23.5227L36.9575 23.9052C36.7089 26.9218 35.5303 29.6604 33.5774 31.76L33.287 32.0723L33.2601 31.887C33.2452 31.785 33.219 31.5074 33.2018 31.27C33.1122 30.0367 32.8439 28.2352 32.5446 26.8575C32.0342 24.5081 31.3444 22.4906 30.4303 20.6741C30.2095 20.235 30.046 19.8611 30.0673 19.8431ZM26.8136 24.4418C27.3188 22.4508 27.8267 21.3228 28.5023 20.6909C28.6417 20.5603 28.7758 20.4536 28.7999 20.4536C28.8574 20.4536 29.5051 21.7128 29.7665 22.3325C31.0121 25.2854 31.8146 28.9683 31.9849 32.5142L32.0189 33.2251L31.5449 33.5586C29.7506 34.8209 27.881 35.5638 25.7434 35.8639C25.1934 35.9412 23.5806 36.0287 23.5806 35.9814C23.5806 35.9727 23.5999 35.9213 23.6294 35.8494C23.6494 35.8005 23.6743 35.7423 23.7012 35.6816C24.3552 34.2019 25.0986 31.6288 26.1199 27.3091C26.374 26.2338 26.6863 24.9435 26.8136 24.4418Z" fill="#B70106"/>
</svg>
