<svg width="48" height="58" viewBox="0 0 48 58" fill="none" xmlns="http://www.w3.org/2000/svg">
<path fill-rule="evenodd" clip-rule="evenodd" d="M7.02991 7.03662C11.5306 2.53113 17.6351 0 24.0002 0C30.3654 0 36.4698 2.53113 40.9706 7.03662C45.4714 11.542 48 17.6527 48 24.0244C48 30.396 45.4714 36.5067 40.9706 41.0122L24.0002 58L7.02991 41.0122C4.80115 38.7814 3.0332 36.1331 1.82703 33.2183C0.62085 30.3035 0 27.1793 0 24.0244C0 20.8694 0.62085 17.7454 1.82703 14.8306C3.0332 11.9158 4.80115 9.26733 7.02991 7.03662ZM14.8507 8.41345C14.9155 8.28638 15.0336 8.16504 15.1541 8.10144C15.2655 8.0426 15.3738 8.0094 15.4821 8.00171C15.6211 7.99194 15.7603 8.02429 15.9064 8.09875C16.2001 8.24866 16.3046 8.48706 16.3455 9.10046C16.4301 10.3698 16.8733 11.2256 17.8438 11.9934C18.0543 12.16 18.6206 12.5432 19.1019 12.845C20.2045 13.536 20.7368 13.9288 21.2091 14.3995C22.0276 15.2153 22.4934 16.194 22.6539 17.4353C22.6688 17.5505 22.6825 17.9963 22.6921 18.6112C22.7008 19.1572 22.7063 19.8367 22.7068 20.5366C22.7084 23.1459 22.7046 23.2496 22.6022 23.4504C22.4828 23.6844 22.179 23.8711 21.9172 23.8711C21.6603 23.8711 21.3514 23.6843 21.2397 23.4615C21.1771 23.3364 21.129 23.0911 21.1083 22.7897C21.0364 21.7476 20.7548 21.1146 20.0502 20.412C19.5341 19.8972 19.1464 19.6265 17.83 18.8615C17.3658 18.5917 16.8379 18.2661 16.6565 18.1378L16.3269 17.9048L16.326 21.8242C16.3252 25.067 16.3116 25.8076 16.2476 26.113C15.9487 27.5366 14.6177 28.6169 13.1625 28.6169C11.4561 28.6169 10 27.1605 10 25.4536C10 23.7445 11.4512 22.2948 13.1672 22.2894C13.5105 22.2883 14.1685 22.4456 14.4746 22.6018C14.5381 22.6342 14.5991 22.6633 14.6442 22.6833C14.6823 22.7003 14.709 22.7106 14.7162 22.7106C14.7319 22.7106 14.7448 19.5405 14.7448 15.666C14.7448 8.71265 14.7461 8.61877 14.8507 8.41345ZM24.6647 17.6875C24.7373 17.6332 27.2798 16.881 30.41 15.9878C33.4983 15.1064 36.1031 14.3832 36.1986 14.3805C36.4657 14.373 36.7721 14.556 36.8947 14.7963C36.9995 15.0018 37.0007 15.092 36.9999 21.983C36.9991 27.9171 36.9873 29.017 36.9215 29.3309C36.6227 30.7545 35.2915 31.8348 33.8364 31.8348C32.13 31.8348 30.6738 30.3784 30.6738 28.6715C30.6738 26.9624 32.125 25.5127 33.8412 25.5073C34.1844 25.5062 34.8424 25.6635 35.1486 25.8197C35.2657 25.8795 35.3744 25.9285 35.3901 25.9285C35.4058 25.9285 35.4186 24.8112 35.4186 23.4456C35.4186 21.1052 35.4132 20.9642 35.3263 20.9907C35.0127 21.0864 25.9266 23.66 25.9025 23.66C25.8949 23.66 25.8879 24.0626 25.8826 24.7239C25.8762 25.5011 25.8721 26.6355 25.8718 27.8934C25.8711 31.4124 25.8578 32.1891 25.7935 32.4961C25.4946 33.9197 24.1635 35 22.7084 35C21.002 35 19.5459 33.5436 19.5459 31.8367C19.5459 30.1276 20.9969 28.6777 22.7131 28.6725C23.0564 28.6714 23.7144 28.8286 24.0205 28.9847C24.1377 29.0447 24.2461 29.0936 24.2614 29.0936C24.2766 29.0936 24.2954 26.6146 24.303 23.5848C24.3168 18.1141 24.3176 18.0751 24.4257 17.9304C24.4855 17.8502 24.593 17.741 24.6647 17.6875Z" fill="#B70106"/>
</svg>
