<svg width="48" height="58" viewBox="0 0 48 58" fill="none" xmlns="http://www.w3.org/2000/svg">
<path fill-rule="evenodd" clip-rule="evenodd" d="M7.02991 7.03662C11.5306 2.53113 17.6351 0 24.0002 0C30.3654 0 36.4698 2.53113 40.9706 7.03662C45.4714 11.542 48 17.6527 48 24.0244C48 30.396 45.4714 36.5067 40.9706 41.0122L24.0002 58L7.02991 41.0122C4.80115 38.7814 3.0332 36.1331 1.82703 33.2183C0.62085 30.3035 0 27.1793 0 24.0244C0 20.8694 0.62085 17.7454 1.82703 14.8306C3.0332 11.9158 4.80115 9.26733 7.02991 7.03662ZM20.1123 8.84998C20.1683 8.84949 21.0546 7.98303 22.0817 6.92444C23.1088 5.86597 23.9805 5 24.0188 5C24.0571 5 24.907 5.86646 25.9072 6.92554C26.9077 7.98462 27.7388 8.85107 27.7542 8.85107C27.7697 8.85107 28.9911 8.55811 30.4686 8.19995C31.4561 7.96069 32.3356 7.7644 32.8204 7.672C33.061 7.6261 33.2045 7.60571 33.2156 7.61829C33.2362 7.64197 33.3418 8.08081 33.4852 8.72729C33.5731 9.12305 33.675 9.59668 33.7804 10.1006L34.2849 12.5134L36.9148 13.3451C38.3613 13.8026 39.583 14.2004 39.6295 14.2294C39.6843 14.2632 39.4417 15.1268 38.9446 16.6675C38.5214 17.9796 38.1862 19.1033 38.1996 19.1646C38.2131 19.2257 39.0708 20.1661 40.1053 21.2544C41.1399 22.3427 41.9924 23.2555 41.9999 23.283C42.0074 23.3103 41.3503 23.9285 40.5398 24.6565L39.076 25.9717L38.6202 26.3815L38.1744 26.7826L38.8297 29.4966C39.1931 31.0022 39.4537 32.2379 39.4149 32.2722C39.3763 32.3063 38.2605 32.5625 36.9349 32.8417L34.525 33.3492L33.6962 35.9829C33.15 37.7184 32.8307 38.6167 32.76 38.6167C32.7239 38.6167 32.5712 38.5804 32.3678 38.5253C32.2388 38.4904 32.0894 38.4478 31.9365 38.4019L31.2203 38.1869V35.4044V32.6218L31.8326 32.1091C33.8264 30.4402 35.2958 27.8934 35.8336 25.1752C36.0515 24.0736 36.0314 21.8417 35.7935 20.7252C34.7555 15.8551 31.2004 12.292 26.3376 11.2476C25.1254 10.9872 22.9072 10.9872 21.6949 11.2476C18.9967 11.827 16.8146 13.0972 14.9839 15.1536C13.6377 16.6658 12.6985 18.5728 12.2399 20.7252C12.0002 21.8499 11.979 24.0814 12.1975 25.1752C12.7413 27.8966 14.1543 30.3591 16.1482 32.0609L16.8123 32.6277V35.3357V38.0437L16.3719 38.1697L15.4835 38.4241C15.3597 38.4596 15.2404 38.484 15.1481 38.4949C15.0565 38.5056 14.9916 38.5029 14.9751 38.4843C14.942 38.4468 14.6576 37.3362 14.3431 36.0164C14.0288 34.6964 13.7623 33.6091 13.751 33.6C13.7397 33.5908 12.5293 33.202 11.0613 32.7358C9.59314 32.2698 8.37585 31.8722 8.35608 31.8524C8.3363 31.8326 8.66394 30.7506 9.08423 29.4479C9.50439 28.1453 9.84827 27.0365 9.84827 26.9841C9.84827 26.8809 9.31775 26.2981 7.30383 24.1895L6 22.8243L7.7041 21.2832C8.21594 20.8202 8.70691 20.3744 9.06714 20.0458C9.36646 19.7727 9.57544 19.5807 9.6311 19.5271L9.85425 19.3121L9.20813 16.634C8.99426 15.7476 8.81042 14.9409 8.70276 14.4265C8.63147 14.0862 8.59351 13.8737 8.60229 13.8506C8.62439 13.7926 8.68884 13.7457 8.74524 13.7463C8.80164 13.7469 9.89502 13.5258 11.1749 13.2545L13.502 12.7615L14.3364 10.1168C14.7954 8.66248 15.1929 7.43677 15.2197 7.39331C15.2488 7.34619 16.229 7.62549 17.6396 8.08264C18.9436 8.50525 20.0564 8.85059 20.1123 8.84998ZM22.3353 13.5874C22.6655 13.5338 22.9897 13.4768 23.0558 13.4608C23.3905 13.3795 25.4772 13.5125 26.0974 13.6547C29.8596 14.5171 32.7113 17.4845 33.4707 21.3269C33.5344 21.6495 33.5817 22.3835 33.5817 23.0519C33.5817 24.3156 33.4879 24.9417 33.1354 26.0328C32.0847 29.2847 29.3265 31.7581 25.9374 32.4875C25.0878 32.6704 23.1221 32.6924 22.2953 32.5282C21.4893 32.3683 20.4403 32.0132 19.7616 31.6704C17.4542 30.5059 15.677 28.446 14.8972 26.0328C14.5398 24.9265 14.4507 24.3197 14.4536 23.0118C14.4575 21.3301 14.7229 20.177 15.4326 18.7595C16.7822 16.0638 19.4659 14.0529 22.3353 13.5874ZM26.2963 20.6869C26.0701 20.6475 25.9912 20.5171 25.0568 18.639C24.5079 17.536 24.0398 16.6334 24.0164 16.6334C23.9928 16.6334 23.5247 17.536 22.9758 18.639C22.0404 20.519 21.9626 20.6473 21.7363 20.6859C21.2018 20.7771 17.6541 21.287 17.5375 21.2894C17.4688 21.2909 18.1604 22.022 19.0746 22.9141L20.7366 24.5361L20.3516 26.7426C20.1398 27.9561 19.9923 28.96 20.0238 28.9735C20.0554 28.9869 20.968 28.5298 22.0519 27.9575L24.0225 26.9167L25.9888 27.9568C27.0702 28.5289 27.9801 28.9861 28.0105 28.9729C28.0411 28.9597 27.8931 27.9561 27.6814 26.7426L27.2966 24.5361L28.9584 22.9144C29.8722 22.0226 30.58 21.2914 30.5309 21.2898C30.4265 21.2864 26.6509 20.7488 26.2963 20.6869ZM23.1108 22.9299C23.5702 22.8489 23.5785 22.8427 23.77 22.4285C23.8766 22.1978 23.9893 22.0089 24.0203 22.0089C24.0513 22.0089 24.1549 22.1913 24.2505 22.4141C24.3387 22.6196 24.3857 22.7295 24.4679 22.7959C24.5624 22.8723 24.7035 22.8912 25.0072 22.932L25.3977 22.9846L25.0588 23.3308C24.8655 23.5282 24.7831 23.6194 24.7592 23.7323C24.7432 23.8077 24.7533 23.8931 24.774 24.0264C24.7949 24.16 24.8219 24.3077 24.8438 24.4117C24.8533 24.4573 24.8619 24.4944 24.8687 24.5182C24.9033 24.641 24.8473 24.6305 24.4626 24.4414L24.0164 24.2219L23.5699 24.4414C23.1858 24.6302 23.1295 24.6409 23.1652 24.5182C23.1881 24.4398 23.2292 24.2133 23.2567 24.0146C23.2777 23.8627 23.287 23.7716 23.2635 23.6909C23.2339 23.589 23.1521 23.5037 22.9761 23.3328L22.6455 23.0118L23.1108 22.9299ZM19.2136 46V40.0197V34.0394L19.4337 34.1525C19.801 34.3412 21.1309 34.7415 21.8951 34.8934C22.8982 35.0928 25.1372 35.0944 26.1346 34.8964C26.8927 34.746 28.2289 34.3425 28.5989 34.1525L28.819 34.0394V40.0197V46L26.4176 44.1927L24.0164 42.3855L21.615 44.1927L19.2136 46Z" fill="#1001B7"/>
</svg>
