<svg width="48" height="58" viewBox="0 0 48 58" fill="none" xmlns="http://www.w3.org/2000/svg">
<path fill-rule="evenodd" clip-rule="evenodd" d="M7.02987 7.03658C11.5307 2.53113 17.6351 0 24.0003 0C30.3654 0 36.4698 2.53113 40.9706 7.03658C45.4715 11.542 48 17.6527 48 24.0244C48 30.3961 45.4715 36.5067 40.9706 41.0122L24.0003 58L7.02987 41.0122C4.80114 38.7814 3.0332 36.133 1.82701 33.2182C0.620821 30.3034 0 27.1794 0 24.0244C0 20.8694 0.620821 17.7453 1.82701 14.8306C3.0332 11.9158 4.80114 9.26737 7.02987 7.03658ZM13.5 29C15.9853 29 18 26.9853 18 24.5C18 22.0147 15.9853 20 13.5 20C11.0147 20 9 22.0147 9 24.5C9 26.9853 11.0147 29 13.5 29ZM28.8 24.5C28.8 26.9853 26.7853 29 24.3 29C21.8147 29 19.8 26.9853 19.8 24.5C19.8 22.0147 21.8147 20 24.3 20C26.7853 20 28.8 22.0147 28.8 24.5ZM35.1 29C37.5853 29 39.6 26.9853 39.6 24.5C39.6 22.0147 37.5853 20 35.1 20C32.6147 20 30.6 22.0147 30.6 24.5C30.6 26.9853 32.6147 29 35.1 29Z" fill="#B70106"/>
</svg>
