<svg width="48" height="58" viewBox="0 0 48 58" fill="none" xmlns="http://www.w3.org/2000/svg">
<path fill-rule="evenodd" clip-rule="evenodd" d="M7.02987 7.03658C11.5307 2.53113 17.6351 0 24.0003 0C30.3654 0 36.4698 2.53113 40.9706 7.03658C45.4715 11.542 48 17.6527 48 24.0244C48 30.3961 45.4715 36.5067 40.9706 41.0122L24.0003 58L7.02987 41.0122C4.80114 38.7814 3.0332 36.133 1.82701 33.2182C0.620821 30.3034 0 27.1794 0 24.0244C0 20.8694 0.620821 17.7453 1.82701 14.8306C3.0332 11.9158 4.80114 9.26737 7.02987 7.03658ZM19.2492 11.0285C18.513 11.088 17.9181 11.2369 17.3873 11.4945C16.6029 11.8752 15.5234 13.1537 12.9023 16.8069C10.3261 20.3972 9.24917 22.5684 8.38022 25.9233C7.99256 27.4198 7.94743 27.6835 8.04235 27.8967C8.13106 28.0961 9.05135 28.9391 9.93348 29.6291C13.1936 32.1792 17.4155 33.6862 22.736 34.1991C24.1438 34.3348 27.0867 34.3354 28.603 34.2004C34.1229 33.7088 36.8705 32.4932 38.2636 29.9265C39.0222 28.5288 39.4542 26.2494 39.2251 24.8536C38.7816 22.1519 37.2693 20.4576 34.6721 19.753C33.9186 19.5485 32.2871 19.5506 31.525 19.757C29.5287 20.2976 28.1455 21.4843 27.4346 23.2658C27.3091 23.5803 27.1977 23.8489 27.1869 23.8625C27.1763 23.8762 26.9153 23.6323 26.607 23.3205C25.3169 22.0157 23.7253 21.3423 21.7564 21.2683C20.6895 21.2282 19.8293 21.3437 18.9089 21.6508C18.3343 21.8425 17.2194 22.3719 16.7704 22.6662L16.5473 22.8124L16.5815 22.6522C16.7889 21.68 16.8604 21.3859 17.0374 20.7764C17.3084 19.8437 17.7622 18.7071 18.2557 17.7252L18.6565 16.9279L20.1276 16.9515L21.5986 16.9751L22.066 16.5613C22.323 16.3338 22.769 15.9058 23.0569 15.6103L23.5805 15.0731V14.4633C23.5805 13.4457 23.2512 12.6244 22.5571 11.9112C22.1757 11.5193 21.8269 11.3253 21.2159 11.1651C20.6069 11.0054 20.0301 10.9654 19.2492 11.0285Z" fill="#B70106"/>
</svg>
