<svg width="48" height="58" viewBox="0 0 48 58" fill="none" xmlns="http://www.w3.org/2000/svg">
<path fill-rule="evenodd" clip-rule="evenodd" d="M7.02991 7.03662C11.5306 2.53113 17.6351 0 24.0002 0C30.3654 0 36.4698 2.53113 40.9706 7.03662C45.4714 11.542 48 17.6527 48 24.0244C48 30.396 45.4714 36.5067 40.9706 41.0122L24.0002 58L7.02991 41.0122C4.80115 38.7814 3.0332 36.1331 1.82703 33.2183C0.62085 30.3035 0 27.1793 0 24.0244C0 20.8694 0.62085 17.7454 1.82703 14.8306C3.0332 11.9158 4.80115 9.26733 7.02991 7.03662ZM31.5294 8.4292C32.47 8.20886 33.2615 8.01978 33.2883 8.00903C33.3025 8.0033 33.3551 8.00024 33.4272 8C33.4919 7.99976 33.5723 8.00183 33.6548 8.00623C34.2074 8.03528 34.7191 8.36304 34.9438 8.83154C35.1215 9.20178 36.0115 12.6115 35.9744 12.7798C35.9387 12.9424 35.7445 13.1461 35.5957 13.177C35.5663 13.1831 35.4067 13.2191 35.1725 13.2725C34.931 13.3274 34.6102 13.4006 34.2708 13.4784C33.6018 13.6316 33.038 13.7394 33.0177 13.7177C32.8478 13.5355 29.75 8.89294 29.7802 8.86548C29.8016 8.84583 30.5889 8.64954 31.5294 8.4292ZM24.4771 10.1136C24.4862 10.105 25.4061 9.87854 26.5214 9.61047C27.6366 9.34241 28.5706 9.12756 28.5968 9.13293C28.6655 9.14722 31.9363 13.9656 31.901 14.0004C31.8463 14.0543 28.0924 14.8854 28.0426 14.8546C27.9753 14.8131 24.4561 10.1337 24.4771 10.1136ZM19.8475 11.2139C20.1892 11.1229 20.7372 10.9857 21.3519 10.8385C22.3812 10.5922 23.25 10.3884 23.2825 10.3857C23.3386 10.3813 26.9396 15.1096 26.9045 15.1418C26.8728 15.1708 22.7069 16.1089 22.692 16.0903C22.5785 15.9485 19.4806 11.351 19.4806 11.324C19.4806 11.3157 19.6172 11.2753 19.8475 11.2139ZM14.1705 12.5541C14.1782 12.5472 15.108 12.3212 16.2366 12.0518C16.9321 11.8856 17.5552 11.7375 17.9351 11.6477C18.1715 11.5918 18.3137 11.5585 18.3204 11.5576C18.3766 11.5502 21.5874 16.3104 21.5497 16.3452C21.5298 16.3635 20.59 16.5889 19.4613 16.8458C17.8671 17.2089 17.3967 17.3 17.3531 17.2542C17.2656 17.1621 14.1548 12.568 14.1705 12.5541ZM11.4386 13.4667C11.7062 13.1909 11.8386 13.1235 12.4257 12.9639C12.6943 12.8907 12.9496 12.8292 12.9927 12.8271C13.0837 12.8229 16.2789 17.4932 16.2343 17.5654C16.2264 17.578 16.2094 17.5895 16.1884 17.5977C16.168 17.6055 16.1439 17.6104 16.1207 17.6104C16.0535 17.6104 15.8677 18.0303 15.2563 19.5637L14.4777 21.517L13.244 21.5176L12.0104 21.5181V20.1299V18.7416L11.4926 16.6984C11.0385 14.9061 10.9785 14.6227 11.0054 14.3904C11.0469 14.031 11.1927 13.72 11.4386 13.4667ZM15.6259 21.4823C15.6259 21.4619 15.9929 20.5275 16.4415 19.4058L17.2571 17.3661H19.2997C20.4232 17.3661 21.3424 17.3719 21.3424 17.3792C21.3424 17.3862 20.9729 18.3149 20.5214 19.4429L19.7003 21.4937L17.6631 21.5065C16.5426 21.5134 15.6259 21.5026 15.6259 21.4823ZM20.8141 21.5181L21.6451 19.4421L22.4763 17.3661H24.5187H26.561L25.73 19.4421L24.8988 21.5181H22.8564H20.8141ZM26.0465 21.457C26.3827 20.6071 27.6609 17.4291 27.6772 17.4028C27.7067 17.3551 31.7493 17.3549 31.7493 17.4026C31.7493 17.4111 31.6823 17.5867 31.5704 17.8726C31.4207 18.2555 31.1906 18.8363 30.9337 19.4785L30.118 21.5181H28.0702C27.1855 21.5181 26.6577 21.5143 26.364 21.5029C26.1204 21.4935 26.0378 21.4789 26.0465 21.457ZM31.2816 21.4326C31.2987 21.3856 31.6693 20.4517 32.1052 19.3573L32.8975 17.3674L34.2668 17.3668C35.7653 17.3661 35.7761 17.368 35.927 17.6598C35.9512 17.7065 35.9677 17.7865 35.9788 17.9631C35.9956 18.2314 36 18.7227 36 19.6595V21.5181H33.6251C32.4883 21.5181 31.8942 21.5168 31.5885 21.5051C31.2916 21.4937 31.267 21.4724 31.2816 21.4326ZM12.1918 31.3483C12.0083 30.9136 12.0117 30.3999 12.0111 26.6348L12.0104 22.5928H24.0051H36L35.9991 26.5859C35.9984 29.9124 35.9863 30.6362 35.9264 30.921C35.714 31.9303 34.8693 32.7648 33.8778 32.9445C33.4658 33.0192 14.4625 33.0182 14.1014 32.9435C13.3849 32.7952 12.629 32.2253 12.3096 31.5927C12.2635 31.5016 12.2246 31.4261 12.1918 31.3483Z" fill="#B70106"/>
</svg>
