<svg width="48" height="58" viewBox="0 0 48 58" fill="none" xmlns="http://www.w3.org/2000/svg">
<path fill-rule="evenodd" clip-rule="evenodd" d="M7.02987 7.03658C11.5307 2.53113 17.6351 0 24.0003 0C30.3654 0 36.4698 2.53113 40.9706 7.03658C45.4715 11.542 48 17.6527 48 24.0244C48 30.3961 45.4715 36.5067 40.9706 41.0122L24.0003 58L7.02987 41.0122C4.80114 38.7814 3.0332 36.133 1.82701 33.2182C0.620821 30.3034 0 27.1794 0 24.0244C0 20.8694 0.620821 17.7453 1.82701 14.8306C3.0332 11.9158 4.80114 9.26737 7.02987 7.03658ZM32.2703 10.0273C32.4152 9.09252 33.1431 8.29018 34.0441 8.07192C34.8829 7.86878 35.6963 8.09997 36.3057 8.7148C36.8289 9.24274 37.0846 10.0044 36.975 10.7089C36.7713 12.0186 35.6154 12.8924 34.2968 12.7335C33.0113 12.5786 32.0697 11.3212 32.2703 10.0273ZM26.4473 9.45508C26.6959 8.99559 26.9495 8.58444 27.0109 8.54139C27.2479 8.37527 27.3169 8.45049 27.8863 9.49659L28.3194 10.2923L29.0904 10.7115C30.0644 11.241 30.1174 11.282 30.0968 11.4908C30.0817 11.6433 30.0234 11.6851 29.2025 12.1317L28.3244 12.6096L27.8568 13.4715C27.5997 13.9456 27.3455 14.3576 27.292 14.3871C27.0678 14.5109 26.9751 14.4101 26.4717 13.4957L25.9839 12.6096L25.1606 12.1606C24.7079 11.9136 24.3057 11.6802 24.267 11.6418C24.1682 11.544 24.1793 11.347 24.2889 11.2506C24.3397 11.206 24.7444 10.9717 25.1883 10.73L25.9953 10.2905L26.4473 9.45508ZM18.8563 9.34067C18.9054 9.25679 19.0284 9.14391 19.1295 9.08977C19.6447 8.81405 20.2906 9.17724 20.2911 9.74305C20.2914 9.96743 19.4495 12.3768 19.2989 12.5828C19.1757 12.7511 18.8862 12.8999 18.6818 12.8999C18.28 12.8999 17.9166 12.5331 17.9166 12.1277C17.9166 11.8956 18.6721 9.65474 18.8563 9.34067ZM22.566 15.4327C22.15 15.0164 22.2997 14.3376 22.8508 14.1409C23.3617 13.9585 23.8799 14.3299 23.8799 14.8782C23.8799 15.5592 23.0445 15.9117 22.566 15.4327ZM30.6094 15.8878C30.077 15.5755 30.0982 14.7901 30.6463 14.5197C31.0365 14.3273 31.4976 14.4825 31.6847 14.8693C31.8237 15.1568 31.8242 15.2906 31.6871 15.574C31.6081 15.7373 31.5168 15.8286 31.3538 15.9077C31.0602 16.0498 30.8774 16.045 30.6094 15.8878ZM15.7324 16.542C15.9519 16.0659 16.39 15.7009 16.9102 15.5605C17.2613 15.4658 17.4909 15.4745 17.8979 15.5983L18.2596 15.7083L23.7659 21.2104C26.7944 24.2366 29.33 26.8022 29.4008 26.9118C29.5864 27.1994 29.7036 27.7039 29.6606 28.0295C29.5833 28.6144 29.2479 29.1004 28.7262 29.3835C28.4152 29.5523 28.359 29.5648 27.917 29.5638C27.5277 29.563 27.3944 29.5402 27.1782 29.4373C26.7891 29.2523 15.9332 18.3866 15.7484 17.9972C15.5757 17.6332 15.5676 16.8993 15.7324 16.542ZM35.2602 17.2843C35.5386 16.2056 35.6534 15.998 36.0185 15.9121C36.1196 15.8883 36.2142 15.8665 36.2287 15.8637C36.3503 15.8402 36.6717 15.9998 36.8022 16.1487C37.0782 16.4632 37.0721 16.5468 36.649 18.2425C36.3191 19.5646 36.2423 19.8099 36.0997 19.997C35.7859 20.4087 35.3931 20.5695 34.9756 20.457C34.8038 20.4107 34.1242 20.0305 33.5529 19.6611C33.4889 19.6197 33.4256 19.5968 33.4123 19.6103C33.3989 19.6237 33.3719 20.0031 33.3522 20.4534C33.3325 20.9037 33.2939 21.3615 33.2664 21.4708C33.1592 21.8957 32.684 22.2458 32.2115 22.2481C31.9581 22.2493 31.2989 21.9533 30.1123 21.3053C29.8395 21.1563 29.6079 21.0344 29.5978 21.0344C29.5876 21.0344 29.5793 21.3503 29.5793 21.7363C29.5793 22.3603 29.5662 22.4639 29.4606 22.6699C29.1807 23.2163 28.4229 23.2397 28.1014 22.7119C28.0042 22.5524 27.9966 22.445 27.9975 21.2457C27.9984 20.108 28.0101 19.926 28.0946 19.7398C28.2912 19.3066 28.7827 19.032 29.2326 19.104C29.3531 19.1232 29.924 19.3987 30.5569 19.7428C31.1688 20.0755 31.6978 20.3477 31.7326 20.3477C31.7743 20.3477 31.796 20.2444 31.7963 20.044C31.7972 19.5616 31.8995 18.4901 31.964 18.2877C32.1192 17.8008 32.5425 17.5208 33.0665 17.5588C33.333 17.5781 33.4278 17.6152 33.6836 17.8007C33.8499 17.9213 34.1926 18.1639 34.4452 18.34L34.9046 18.66L34.9562 18.4607L35.2602 17.2843ZM24.2491 17.3105C24.313 17.2524 24.915 16.9876 25.587 16.722C26.9299 16.1911 27.1893 16.1383 27.5054 16.3313C27.9432 16.5984 27.9709 17.3548 27.5529 17.6289C27.4845 17.6737 26.8759 17.9255 26.2003 18.1883C24.8718 18.7053 24.6196 18.7569 24.3601 18.5646C23.911 18.2317 23.8607 17.6633 24.2491 17.3105ZM14.5493 23.9973L15.2682 22.3574C15.6636 21.4554 15.9998 20.7175 16.0152 20.7175C16.0308 20.7175 17.8363 22.512 20.0275 24.7054C22.2187 26.8988 23.9938 28.6933 23.972 28.6933C23.9502 28.6933 21.8212 27.6367 19.2409 26.3453L14.5493 23.9973ZM30.5727 25.0136C30.3578 24.5273 30.6019 24.0531 31.1243 23.9424C31.7714 23.8051 32.2955 24.5289 31.9544 25.0888C31.6201 25.6377 30.8295 25.5946 30.5727 25.0136ZM12.5291 28.7052C12.5107 28.6841 12.8066 27.9598 13.1867 27.0955C13.5669 26.2312 13.8901 25.5233 13.9051 25.5222C13.9559 25.5187 22.5023 29.776 22.5051 29.8063C22.5092 29.8521 18.6933 31.5129 18.6026 31.5048C18.5107 31.4964 12.5793 28.7623 12.5291 28.7052ZM10 34.5127C9.99963 34.4351 10.4078 33.4386 10.9071 32.2983C11.4063 31.1581 11.8332 30.2251 11.8555 30.2251C11.9087 30.2251 16.5058 32.3379 16.5583 32.3865C16.5804 32.4069 15.2537 33.0126 13.61 33.7324C10.9404 34.9016 10.4981 35.1025 10.2775 34.9601C10.2266 34.9273 10.1876 34.8763 10.1358 34.8146C10.0615 34.7263 10.0004 34.5904 10 34.5127Z" fill="#B70106"/>
</svg>
