<svg width="48" height="58" viewBox="0 0 48 58" fill="none" xmlns="http://www.w3.org/2000/svg">
<path fill-rule="evenodd" clip-rule="evenodd" d="M7.02991 7.03662C11.5306 2.53113 17.6351 0 24.0002 0C30.3654 0 36.4698 2.53113 40.9706 7.03662C45.4714 11.542 48 17.6527 48 24.0244C48 30.396 45.4714 36.5067 40.9706 41.0122L24.0002 58L7.02991 41.0122C4.80115 38.7814 3.0332 36.1331 1.82703 33.2183C0.62085 30.3035 0 27.1793 0 24.0244C0 20.8694 0.62085 17.7454 1.82703 14.8306C3.0332 11.9158 4.80115 9.26733 7.02991 7.03662ZM10.887 17.4723C10.7666 17.0233 10.802 16.7079 10.9973 16.4874C11.1416 16.3247 11.2601 16.2745 12.9043 15.6798L14.6573 15.0458L14.9836 15.9515C15.3473 16.9614 15.4451 17.1116 15.8093 17.2202C16.0922 17.3046 16.5288 17.1473 16.6929 16.902C16.9042 16.5861 16.8837 16.4081 16.5199 15.3982L16.1937 14.4924L23.6213 11.8173C30.9644 9.17249 31.0516 9.14246 31.2894 9.1759C31.5924 9.21851 31.8164 9.43079 32.0143 9.86292C32.4114 10.7299 33.3656 11.1958 34.2628 10.9608C34.6991 10.8466 34.9994 10.8926 35.2229 11.1079C35.3982 11.277 35.4346 11.3722 37.3678 16.74C39.3011 22.1077 39.3339 22.2041 39.3065 22.4462C39.2717 22.7546 39.0697 22.9814 38.6608 23.1716C37.8167 23.5641 37.3809 24.5267 37.6287 25.4512C37.7518 25.9103 37.7146 26.2166 37.5084 26.4426C37.3466 26.62 37.2601 26.6525 29.9171 29.2972L22.4895 31.9724L22.1633 31.0667C21.7996 30.0568 21.7018 29.9066 21.3376 29.798C21.0548 29.7136 20.6182 29.8708 20.454 30.1162C20.2427 30.4321 20.2632 30.6101 20.627 31.62L20.9531 32.5258L19.21 33.1536C17.564 33.7465 17.4534 33.7795 17.2262 33.7476C16.9249 33.7052 16.6995 33.4929 16.5054 33.0691C16.1046 32.1941 15.1572 31.726 14.2616 31.9604C13.8169 32.0769 13.5176 32.0321 13.2928 31.8156C13.1174 31.6466 13.0812 31.5513 11.1478 26.1836C9.2146 20.8158 9.18176 20.7194 9.20911 20.4773C9.24402 20.1689 9.44592 19.942 9.85486 19.752C10.699 19.3594 11.1349 18.3969 10.887 17.4723ZM27.1873 16.5814C26.3721 15.7874 26.1678 15.6155 25.9923 15.5757C25.7084 15.5112 25.3253 15.6504 25.1543 15.8799C25.0521 16.0172 24.9989 16.3157 24.8809 17.4136C24.8003 18.1633 24.7234 18.7808 24.7098 18.7856C24.676 18.7979 22.7628 19.8364 22.5687 19.9479C22.348 20.0748 22.1689 20.4415 22.194 20.7155C22.2336 21.1504 22.3485 21.2419 23.6869 21.905L24.913 22.5125L25.161 23.8593L25.4092 25.2061L25.5853 25.3812C25.6823 25.4775 25.8623 25.5833 25.9856 25.6162C26.1731 25.6665 26.2542 25.6556 26.4823 25.5496C26.709 25.4441 26.8937 25.2661 27.5801 24.4915L28.4054 23.5602L29.6287 23.754C30.651 23.916 30.8997 23.9353 31.1426 23.8715C31.3855 23.8075 31.4552 23.7639 31.5676 23.6058C31.6415 23.5018 31.7128 23.3054 31.726 23.1694L31.75 22.9222L31.0824 21.7266L30.4148 20.5308L30.972 19.2811C31.5802 17.9169 31.6104 17.7732 31.3636 17.4128C31.2163 17.1976 30.8513 17.0225 30.6149 17.0533C30.5371 17.0635 29.7264 17.2216 29.0631 17.3535C28.6013 17.4454 28.2109 17.5247 28.1887 17.5327C28.1786 17.5363 27.7279 17.1083 27.1873 16.5814ZM18.3784 20.5583C17.9287 19.3101 17.8535 19.1908 17.4482 19.0835C17.2992 19.0439 17.1552 19.0531 16.99 19.1127C16.6959 19.2185 16.4977 19.4709 16.4645 19.7819C16.4447 19.9674 16.4987 20.1575 16.8423 21.1116C17.1959 22.094 17.262 22.2423 17.4037 22.3735C17.6622 22.6128 17.8755 22.6534 18.2205 22.5292C18.5656 22.4049 18.7039 22.2377 18.7505 21.8884C18.776 21.697 18.7323 21.5406 18.3784 20.5583ZM25.3503 20.3564C26.2621 19.8859 26.3136 19.8118 26.3947 18.8521C26.4241 18.5042 26.4586 18.2156 26.4714 18.2109C26.4816 18.2074 26.6147 18.3313 26.7908 18.5061C26.8378 18.5529 26.8878 18.6033 26.9393 18.6559C27.6121 19.3417 27.699 19.3662 28.6904 19.1512C28.9708 19.0905 29.2084 19.0436 29.2183 19.047C29.2283 19.0504 29.1122 19.3204 28.9603 19.6472C28.8086 19.9739 28.6759 20.3414 28.6655 20.464C28.6477 20.6743 28.6633 20.7173 28.9454 21.2384C29.0355 21.4048 29.1265 21.5698 29.1968 21.6952C29.2548 21.7985 29.2988 21.8748 29.3168 21.9028C29.3833 22.0059 29.3287 22.0063 28.6786 21.9083C28.2111 21.8378 27.9077 21.8228 27.792 21.8644C27.6761 21.9061 27.4517 22.1117 27.1346 22.4662L26.6531 23.0046L26.6283 22.843C26.5282 22.193 26.39 21.5928 26.3077 21.4507C26.2358 21.3268 26.0338 21.1923 25.5427 20.9419L24.8754 20.6016L25.3503 20.3564ZM20.3047 25.9066C19.8667 24.6904 19.7889 24.5625 19.4139 24.4417C19.1986 24.3722 18.7784 24.4841 18.6049 24.6571C18.5322 24.7296 18.4464 24.8888 18.4142 25.0111C18.3572 25.2271 18.3667 25.2655 18.7611 26.4037C19.1196 27.4386 19.1848 27.5917 19.324 27.7257C19.6736 28.0624 20.2548 28.019 20.5286 27.6359C20.7723 27.2948 20.7542 27.1549 20.3047 25.9066Z" fill="#B70106"/>
</svg>
