<svg width="48" height="58" viewBox="0 0 48 58" fill="none" xmlns="http://www.w3.org/2000/svg">
<path fill-rule="evenodd" clip-rule="evenodd" d="M7.02987 7.03658C11.5307 2.53113 17.6351 0 24.0003 0C30.3654 0 36.4698 2.53113 40.9706 7.03658C45.4715 11.542 48 17.6527 48 24.0244C48 30.3961 45.4715 36.5067 40.9706 41.0122L24.0003 58L7.02987 41.0122C4.80114 38.7814 3.0332 36.133 1.82701 33.2182C0.620821 30.3034 0 27.1794 0 24.0244C0 20.8694 0.620821 17.7453 1.82701 14.8306C3.0332 11.9158 4.80114 9.26737 7.02987 7.03658ZM22.6672 14.1655V10.5827V7H25.9983H29.3293V9.57715V12.1543H26.831H24.3328V13.1599V14.1655L27.3446 15.7056L30.3564 17.2456H23.5H16.6436L19.6554 15.7056L22.6672 14.1655ZM11.1533 21.333C11.0502 21.1057 11.0343 20.9496 11.0182 20.0132L11 18.9512H23.5H36L35.9818 20.0132C35.9641 21.0426 35.9588 21.0851 35.8087 21.397C35.6332 21.7616 35.3642 22.0277 34.9949 22.202L34.7422 22.3213H23.5H12.2578L11.9423 22.1633C11.585 21.9842 11.3242 21.7098 11.1533 21.333ZM14.3397 30.9023V27.4756V24.0488H16.0052H17.6707V27.4756V30.9023H16.0052H14.3397ZM19.3362 30.9023V27.4756V24.0488H21.0017H22.6672V27.4756V30.9023H21.0017H19.3362ZM24.3328 30.9023V27.4756V24.0488H25.9983H27.6638V27.4756V30.9023H25.9983H24.3328ZM29.3293 30.9023V27.4756V24.0488H30.9948H32.6603V27.4756V30.9023H30.9948H29.3293ZM12.6742 34.3008V33.4512V32.6016H23.5H34.3258V33.4512V34.3008H35.1586H35.9913V35.1504V36H23.5H11.0087V35.1504V34.3008H11.8414H12.6742Z" fill="#B70106"/>
</svg>
