<svg width="33" height="25" viewBox="0 0 33 25" fill="none" xmlns="http://www.w3.org/2000/svg">
<path fill-rule="evenodd" clip-rule="evenodd" d="M10.3873 1.49449C10.9181 1.23694 11.513 1.08805 12.2492 1.02851C13.0301 0.965397 13.6069 1.00543 14.2159 1.16508C14.8269 1.32528 15.1757 1.51931 15.5571 1.91122C16.2512 2.62438 16.5805 3.44573 16.5805 4.46327V5.0731L16.0569 5.61032C15.769 5.90582 15.323 6.33379 15.066 6.56133L14.5986 6.9751L13.1276 6.95148L11.6565 6.92793L11.2557 7.7252C10.7622 8.70708 10.3084 9.8437 10.0374 10.7764C9.86037 11.3859 9.78889 11.68 9.58148 12.6522L9.5473 12.8124L9.77038 12.6662C10.2194 12.3719 11.3343 11.8425 11.9089 11.6508C12.8293 11.3437 13.6895 11.2282 14.7564 11.2683C16.7253 11.3423 18.3169 12.0157 19.607 13.3205C19.9153 13.6323 20.1763 13.8762 20.1869 13.8625C20.1977 13.8489 20.3091 13.5803 20.4346 13.2658C21.1455 11.4843 22.5287 10.2976 24.525 9.75698C25.2871 9.55063 26.9186 9.54855 27.6721 9.75301C30.2693 10.4576 31.7816 12.1519 32.2251 14.8536C32.4542 16.2494 32.0222 18.5288 31.2636 19.9265C29.8705 22.4932 27.1229 23.7088 21.603 24.2004C20.0867 24.3354 17.1438 24.3348 15.736 24.1991C10.4155 23.6862 6.19364 22.1792 2.93348 19.6291C2.05135 18.9391 1.13106 18.0961 1.04235 17.8967C0.947429 17.6835 0.992559 17.4198 1.38022 15.9233C2.24917 12.5684 3.32614 10.3972 5.90225 6.8069C8.52343 3.15374 9.6029 1.87515 10.3873 1.49449Z" fill="#B70106"/>
<path d="M12.2492 1.02851L12.2089 0.53013L12.2089 0.530133L12.2492 1.02851ZM10.3873 1.49449L10.169 1.04464L10.169 1.04466L10.3873 1.49449ZM14.2159 1.16508L14.3427 0.681429L14.3427 0.681425L14.2159 1.16508ZM15.5571 1.91122L15.1987 2.25992L15.1988 2.25995L15.5571 1.91122ZM16.5805 5.0731L16.9386 5.42207L17.0805 5.27645V5.0731H16.5805ZM16.0569 5.61032L15.6989 5.26135L15.6988 5.26138L16.0569 5.61032ZM15.066 6.56133L14.7346 6.18693L14.7345 6.18695L15.066 6.56133ZM14.5986 6.9751L14.5906 7.47503L14.7847 7.47815L14.93 7.34947L14.5986 6.9751ZM13.1276 6.95148L13.1356 6.45154L13.1356 6.45154L13.1276 6.95148ZM11.6565 6.92793L11.6645 6.428L11.3507 6.42297L11.2098 6.70337L11.6565 6.92793ZM11.2557 7.7252L10.809 7.50064L10.809 7.50065L11.2557 7.7252ZM10.0374 10.7764L9.55723 10.6369L9.55721 10.637L10.0374 10.7764ZM9.58148 12.6522L10.0705 12.7566L10.0705 12.7565L9.58148 12.6522ZM9.5473 12.8124L9.05831 12.7081L8.80459 13.897L9.82136 13.2306L9.5473 12.8124ZM9.77038 12.6662L10.0444 13.0844L10.0445 13.0844L9.77038 12.6662ZM11.9089 11.6508L11.7507 11.1765L11.7507 11.1765L11.9089 11.6508ZM14.7564 11.2683L14.7752 10.7686L14.7752 10.7686L14.7564 11.2683ZM19.607 13.3205L19.2514 13.6721L19.2515 13.6721L19.607 13.3205ZM20.1869 13.8625L19.7939 13.5534L19.7922 13.5556L20.1869 13.8625ZM20.4346 13.2658L20.899 13.4511L20.899 13.4511L20.4346 13.2658ZM24.525 9.75698L24.3943 9.27436L24.3943 9.27437L24.525 9.75698ZM27.6721 9.75301L27.5412 10.2356L27.5412 10.2356L27.6721 9.75301ZM32.2251 14.8536L32.7185 14.7726L32.7185 14.7726L32.2251 14.8536ZM31.2636 19.9265L30.8242 19.6879L30.8242 19.6879L31.2636 19.9265ZM21.603 24.2004L21.6473 24.6984L21.6473 24.6984L21.603 24.2004ZM15.736 24.1991L15.784 23.7014L15.784 23.7014L15.736 24.1991ZM2.93348 19.6291L2.62542 20.023L2.62543 20.023L2.93348 19.6291ZM1.04235 17.8967L1.49919 17.6935L1.49913 17.6933L1.04235 17.8967ZM1.38022 15.9233L1.86424 16.0487L1.86424 16.0487L1.38022 15.9233ZM5.90225 6.8069L6.3085 7.09838L6.3085 7.09838L5.90225 6.8069ZM12.2089 0.530133C11.4259 0.593463 10.7677 0.754154 10.169 1.04464L10.6055 1.94433C11.0685 1.71972 11.6002 1.58263 12.2895 1.52688L12.2089 0.530133ZM14.3427 0.681425C13.6677 0.504487 13.0327 0.463551 12.2089 0.53013L12.2895 1.52688C13.0274 1.46724 13.546 1.50637 14.0892 1.64874L14.3427 0.681425ZM15.9154 1.56251C15.4613 1.09583 15.0279 0.861063 14.3427 0.681429L14.0891 1.64874C14.626 1.78949 14.8901 1.94279 15.1987 2.25992L15.9154 1.56251ZM17.0805 4.46327C17.0805 3.31875 16.7026 2.37133 15.9154 1.56248L15.1988 2.25995C15.7997 2.87744 16.0805 3.57271 16.0805 4.46327H17.0805ZM17.0805 5.0731V4.46327H16.0805V5.0731H17.0805ZM16.415 5.9593L16.9386 5.42207L16.2225 4.72412L15.6989 5.26135L16.415 5.9593ZM15.3974 6.93572C15.6653 6.69861 16.1202 6.26189 16.415 5.95927L15.6988 5.26138C15.4178 5.54975 14.9808 5.96896 14.7346 6.18693L15.3974 6.93572ZM14.93 7.34947L15.3974 6.9357L14.7345 6.18695L14.2672 6.60072L14.93 7.34947ZM13.1195 7.45142L14.5906 7.47503L14.6066 6.47516L13.1356 6.45154L13.1195 7.45142ZM11.6485 7.42787L13.1195 7.45142L13.1356 6.45154L11.6645 6.428L11.6485 7.42787ZM11.7025 7.94976L12.1032 7.15249L11.2098 6.70337L10.809 7.50064L11.7025 7.94976ZM10.5175 10.9159C10.779 10.016 11.2209 8.90784 11.7025 7.94974L10.809 7.50065C10.3035 8.50631 9.83775 9.67137 9.55723 10.6369L10.5175 10.9159ZM10.0705 12.7565C10.2766 11.7903 10.3452 11.5092 10.5175 10.9158L9.55721 10.637C9.37552 11.2626 9.30118 11.5696 9.09248 12.5479L10.0705 12.7565ZM10.0363 12.9168L10.0705 12.7566L9.09249 12.5479L9.05831 12.7081L10.0363 12.9168ZM9.49631 12.248L9.27323 12.3942L9.82136 13.2306L10.0444 13.0844L9.49631 12.248ZM11.7507 11.1765C11.1403 11.3801 9.98558 11.9273 9.49625 12.2481L10.0445 13.0844C10.4532 12.8165 11.5282 12.3049 12.0672 12.1251L11.7507 11.1765ZM14.7752 10.7686C13.6543 10.7265 12.7335 10.8486 11.7507 11.1765L12.0672 12.1251C12.925 11.8388 13.7247 11.7299 14.7376 11.7679L14.7752 10.7686ZM19.9626 12.969C18.5762 11.5667 16.8608 10.847 14.7752 10.7686L14.7376 11.7679C16.5898 11.8376 18.0577 12.4647 19.2514 13.6721L19.9626 12.969ZM19.7922 13.5556C19.9425 13.3624 20.1529 13.3586 20.2271 13.3648C20.3054 13.3714 20.3623 13.3953 20.3799 13.403C20.4224 13.4212 20.4506 13.4411 20.453 13.4427C20.4655 13.4512 20.4687 13.4546 20.4564 13.4443C20.436 13.4272 20.4005 13.3955 20.35 13.3483C20.251 13.2558 20.1136 13.1217 19.9625 12.969L19.2515 13.6721C19.4087 13.8311 19.5559 13.9749 19.6671 14.0789C19.7218 14.1299 19.7728 14.1761 19.8139 14.2106C19.8324 14.2261 19.8601 14.2488 19.8901 14.2692C19.9013 14.2768 19.9366 14.3008 19.9841 14.3213C20.0044 14.33 20.0633 14.3546 20.1433 14.3613C20.2191 14.3677 20.4307 14.3636 20.5816 14.1695L19.7922 13.5556ZM19.9702 13.0804C19.9081 13.2362 19.8497 13.3798 19.8059 13.4853C19.7839 13.5384 19.7662 13.5802 19.754 13.6084C19.7476 13.623 19.7439 13.6312 19.7423 13.6346C19.7414 13.6367 19.7426 13.6338 19.7454 13.6284C19.7468 13.6258 19.7502 13.6192 19.7551 13.6107C19.7574 13.6068 19.7714 13.5821 19.7939 13.5534L20.5799 14.1716C20.6032 14.1421 20.618 14.1161 20.6214 14.1103C20.6273 14.0999 20.632 14.0911 20.6348 14.0857C20.6404 14.0746 20.6453 14.0643 20.6487 14.0571C20.6557 14.042 20.6635 14.0246 20.6711 14.0071C20.6866 13.9713 20.7067 13.9237 20.7295 13.8686C20.7755 13.7578 20.8356 13.6099 20.899 13.4511L19.9702 13.0804ZM24.3943 9.27437C22.26 9.85241 20.7444 11.1401 19.9702 13.0804L20.899 13.4511C21.5465 11.8284 22.7975 10.7429 24.6557 10.2396L24.3943 9.27437ZM27.8031 9.27046C27.362 9.15077 26.7132 9.10016 26.1011 9.10094C25.4886 9.10172 24.8386 9.15406 24.3943 9.27436L24.6557 10.2396C24.9735 10.1536 25.5202 10.1017 26.1024 10.1009C26.685 10.1002 27.2287 10.1508 27.5412 10.2356L27.8031 9.27046ZM32.7185 14.7726C32.4846 13.3473 31.9625 12.1549 31.1292 11.2214C30.2955 10.2874 29.1777 9.6434 27.803 9.27045L27.5412 10.2356C28.7637 10.5672 29.7006 11.1227 30.3832 11.8874C31.0663 12.6526 31.5222 13.6582 31.7317 14.9345L32.7185 14.7726ZM31.703 20.165C32.1135 19.4088 32.4251 18.4372 32.606 17.4825C32.7863 16.531 32.8459 15.5489 32.7185 14.7726L31.7317 14.9345C31.8334 15.5541 31.7915 16.4097 31.6235 17.2962C31.4561 18.1796 31.1724 19.0465 30.8242 19.6879L31.703 20.165ZM21.6473 24.6984C27.1916 24.2046 30.18 22.9711 31.703 20.165L30.8242 19.6879C29.561 22.0152 27.0542 23.2129 21.5586 23.7024L21.6473 24.6984ZM15.6881 24.6967C17.1288 24.8356 20.1026 24.836 21.6473 24.6984L21.5586 23.7024C20.0707 23.8349 17.1589 23.8339 15.784 23.7014L15.6881 24.6967ZM2.62543 20.023C5.9796 22.6466 10.3 24.1774 15.6881 24.6967L15.784 23.7014C10.531 23.1951 6.40767 21.7118 3.24153 19.2353L2.62543 20.023ZM0.585509 18.0999C0.625464 18.1897 0.686462 18.2682 0.725042 18.3156C0.771848 18.3732 0.828334 18.4356 0.889589 18.4998C1.01267 18.6287 1.17245 18.7826 1.35264 18.9476C1.7138 19.2785 2.17432 19.6701 2.62542 20.023L3.24154 19.2353C2.81051 18.8982 2.36982 18.5233 2.02813 18.2103C1.85689 18.0534 1.71483 17.916 1.61284 17.8092C1.56156 17.7555 1.5247 17.714 1.50075 17.6845C1.46858 17.645 1.48141 17.6535 1.49919 17.6935L0.585509 18.0999ZM0.896192 15.7979C0.704051 16.5397 0.589657 17.0021 0.537487 17.3069C0.484395 17.617 0.477162 17.8565 0.585573 18.1L1.49913 17.6933C1.49855 17.692 1.49979 17.6948 1.50075 17.6989C1.5016 17.7026 1.50064 17.7006 1.5002 17.6893C1.49912 17.6617 1.50164 17.6012 1.52315 17.4756C1.56672 17.2211 1.66872 16.8035 1.86424 16.0487L0.896192 15.7979ZM5.49601 6.51541C2.8934 10.1427 1.78421 12.3694 0.896189 15.7979L1.86424 16.0487C2.71413 12.7674 3.75888 10.6518 6.3085 7.09838L5.49601 6.51541ZM10.169 1.04466C9.67446 1.28465 9.15089 1.77256 8.45151 2.60096C7.74203 3.44132 6.80684 4.68849 5.49601 6.51541L6.3085 7.09838C7.61885 5.27214 8.53398 4.05344 9.21561 3.24606C9.90736 2.4267 10.3157 2.08499 10.6056 1.94431L10.169 1.04466Z" fill="#B70106"/>
</svg>
