<svg width="25" height="29" viewBox="0 0 25 29" fill="none" xmlns="http://www.w3.org/2000/svg">
<path fill-rule="evenodd" clip-rule="evenodd" d="M11.6672 3.58275V7.16555L8.65544 8.70555L5.64364 10.2456H12.5H19.3564L16.3446 8.70555L13.3328 7.16555V6.15989V5.1543H15.831H18.3293V2.57715V0H14.9983H11.6672V3.58275ZM0.0182097 13.0132C0.0342541 13.9496 0.0502429 14.1057 0.153338 14.333C0.32422 14.7098 0.584983 14.9842 0.942347 15.1633L1.25779 15.3213H12.5H23.7422L23.9949 15.202C24.3642 15.0277 24.6332 14.7616 24.8087 14.397C24.9588 14.0851 24.9641 14.0426 24.9818 13.0132L25 11.9512H12.5H0L0.0182097 13.0132ZM3.33968 20.4756V23.9023H5.0052H6.67071V20.4756V17.0488H5.0052H3.33968V20.4756ZM8.33622 20.4756V23.9023H10.0017H11.6672V20.4756V17.0488H10.0017H8.33622V20.4756ZM13.3328 20.4756V23.9023H14.9983H16.6638V20.4756V17.0488H14.9983H13.3328V20.4756ZM18.3293 20.4756V23.9023H19.9948H21.6603V20.4756V17.0488H19.9948H18.3293V20.4756ZM1.67417 26.4512V27.3008H0.841417H0.00866067V28.1504V29H12.5H24.9913V28.1504V27.3008H24.1586H23.3258V26.4512V25.6016H12.5H1.67417V26.4512Z" fill="#B70106"/>
</svg>
