<svg width="27" height="27" viewBox="0 0 27 27" fill="none" xmlns="http://www.w3.org/2000/svg">
<path fill-rule="evenodd" clip-rule="evenodd" d="M5.15402 0.101394C5.03351 0.165066 4.91558 0.286397 4.85077 0.413477C4.74608 0.618737 4.74471 0.712689 4.74471 7.66598C4.74471 11.5405 4.73189 14.7105 4.71623 14.7105C4.70057 14.7105 4.59187 14.6616 4.47463 14.6018C4.16848 14.4456 3.51055 14.2884 3.16727 14.2894C1.45113 14.2947 0 15.7445 0 17.4537C0 19.1605 1.45608 20.617 3.16252 20.617C4.61766 20.617 5.94875 19.5366 6.24757 18.1131C6.3117 17.8076 6.32521 17.067 6.326 13.8242L6.32689 9.90474L6.65651 10.1379C6.83783 10.2661 7.36586 10.5917 7.82997 10.8614C9.14635 11.6265 9.53403 11.8973 10.0502 12.412C10.7547 13.1147 11.0364 13.7476 11.1083 14.7897C11.1291 15.091 11.1771 15.3364 11.2398 15.4616C11.3514 15.6843 11.6603 15.8711 11.9173 15.8711C12.179 15.8711 12.4828 15.6845 12.6022 15.4504C12.7046 15.2497 12.7083 15.1459 12.7067 12.5366C12.7058 11.0485 12.6821 9.6529 12.6539 9.4353C12.4934 8.19398 12.0276 7.21532 11.2091 6.39956C10.7368 5.92879 10.2045 5.53605 9.10194 4.845C8.62059 4.54325 8.05438 4.16001 7.84373 3.99336C6.87333 3.2256 6.43005 2.36969 6.34546 1.10042C6.30458 0.48712 6.20005 0.248679 5.90635 0.0988092C5.6465 -0.0337575 5.40849 -0.0329662 5.15402 0.101394ZM20.41 7.98777C17.2798 8.88103 14.7373 9.63322 14.6646 9.68745C14.593 9.74095 14.4855 9.85025 14.4257 9.93038C14.3177 10.075 14.3168 10.1141 14.303 15.5848C14.2954 18.6146 14.2766 21.0936 14.2614 21.0936C14.2461 21.0936 14.1377 21.0446 14.0205 20.9848C13.7143 20.8286 13.0564 20.6714 12.7131 20.6725C10.997 20.6778 9.54585 22.1275 9.54585 23.8367C9.54585 25.5436 11.0019 27 12.7084 27C14.1635 27 15.4946 25.9196 15.7934 24.4961C15.8578 24.1891 15.8711 23.4124 15.8718 19.8935C15.8723 17.5651 15.8861 15.6601 15.9024 15.6601C15.9266 15.6601 25.0127 13.0864 25.3263 12.9908C25.4133 12.9642 25.4186 13.1053 25.4186 15.4455C25.4186 16.8111 25.4058 17.9284 25.3901 17.9284C25.3744 17.9284 25.2658 17.8795 25.1485 17.8197C24.8424 17.6635 24.1844 17.5063 23.8412 17.5073C22.125 17.5126 20.6739 18.9624 20.6739 20.6716C20.6739 22.3784 22.13 23.8349 23.8364 23.8349C25.2915 23.8349 26.6226 22.7545 26.9215 21.331C26.9873 21.017 26.9991 19.9171 26.9999 13.9831C27.0008 7.09209 26.9995 7.00188 26.8946 6.79631C26.772 6.55607 26.4657 6.37302 26.1986 6.38051C26.1031 6.3832 23.4983 7.10644 20.41 7.98777Z" fill="#B70106"/>
</svg>
