<svg width="28" height="28" viewBox="0 0 28 28" fill="none" xmlns="http://www.w3.org/2000/svg">
<path fill-rule="evenodd" clip-rule="evenodd" d="M8.76199 0.0762729C8.32379 0.194234 8.04446 0.358405 7.70764 0.695881C7.38394 1.02018 7.13415 1.47113 7.07567 1.83671C7.04493 2.02894 6.76111 2.36986 4.72965 4.65437C3.45855 6.08384 2.40262 7.29495 2.38309 7.34581C2.30354 7.55307 2.34955 7.79113 2.50519 7.9775L2.66269 8.16612L2.4181 8.43808C1.55144 9.40167 0.670618 11.2307 0.32389 12.7869C0.0174804 14.162 0.0305552 13.823 0.00987625 20.9217C-0.0112403 28.1818 -0.0321928 27.7258 0.331056 27.9136C0.563995 28.034 0.82757 27.9766 1.00405 27.7669L1.1441 27.6005L1.14492 21.6574C1.14574 15.7546 1.17337 14.6062 1.33814 13.6403C1.5015 12.6823 1.85922 11.5718 2.26197 10.7724C2.47669 10.3461 3.01833 9.52368 3.29066 9.21026L3.47759 8.99523L3.67705 9.14732C3.92854 9.33905 4.20081 9.35469 4.42352 9.19008C4.51296 9.12397 4.59945 9.06988 4.61575 9.06988C4.632 9.06988 4.6453 10.4205 4.6453 12.0714V15.0729L4.50207 15.1667C4.22165 15.3504 3.68367 15.8761 3.41408 16.23C2.28418 17.7129 2.02542 20.0316 2.76696 22.0284C3.08929 22.8964 3.6736 23.8832 4.31268 24.6389L4.6453 25.0323V25.9378V26.8433H4.26656C3.93997 26.8433 3.86486 26.8626 3.72136 26.9833C3.40921 27.2459 3.46145 27.7219 3.8229 27.9087C4.0583 28.0304 6.43583 28.0304 6.67123 27.9087C7.03267 27.7219 7.08492 27.2459 6.77276 26.9833C6.62927 26.8626 6.55416 26.8433 6.22756 26.8433H5.84883V26.5124C5.84883 26.2572 5.86486 26.1916 5.91886 26.2253C5.95742 26.2494 6.21071 26.42 6.48178 26.6045C8.12007 27.7196 9.83248 28.1636 11.5305 27.9136C13.0953 27.6832 14.2573 27.0418 15.0839 25.9522C15.8566 24.9337 16.181 23.8859 16.3192 21.9615C16.3981 20.8634 16.4537 20.6776 16.7989 20.3577C17.055 20.1206 17.2523 20.0152 18.168 19.627C19.8101 18.9307 20.4931 18.2656 20.8494 17.0159C20.9501 16.6625 20.9703 16.4581 20.9673 15.8238C20.9641 15.1594 20.9445 14.9947 20.8186 14.5779C20.7389 14.3137 20.5772 13.9057 20.4592 13.6712L20.2447 13.2448L22.1964 11.2978L24.148 9.35092L24.705 9.33342C25.163 9.31909 25.2884 9.29612 25.4115 9.20419C25.5454 9.10406 27.7089 5.42502 27.9316 4.91845C28.0951 4.54685 28.0243 4.42796 27.0565 3.44895C26.0483 2.42914 25.8997 2.31725 25.6078 2.35821C25.481 2.37599 24.6198 2.83645 23.2854 3.6C21.6383 4.54248 21.1465 4.84856 21.0835 4.97024C21.0289 5.07574 21.0024 5.29323 21.0024 5.63584V6.14465L19.0413 8.10459L17.0802 10.0645L16.8018 9.92349C15.9269 9.48031 15.2035 9.31816 14.2782 9.35792C13.1447 9.40659 12.3679 9.72405 11.7378 10.3962C11.3256 10.8358 11.0764 11.262 10.6589 12.2417C10.4731 12.6779 10.2389 13.1578 10.1385 13.3081C9.81793 13.7884 9.37273 13.9917 8.64175 13.9917C8.05201 13.9917 7.06298 14.1252 6.43621 14.2893C6.14249 14.3663 5.89019 14.4292 5.87547 14.4292C5.86081 14.4292 5.84905 12.9712 5.84927 11.189L5.84971 7.94879L7.6898 6.31413C8.74662 5.37526 9.60222 4.65628 9.69982 4.62506C10.4964 4.37016 10.8051 4.19182 11.1177 3.80595C11.4837 3.35423 11.6462 2.89535 11.6471 2.31091C11.6494 0.817669 10.1944 -0.309273 8.76199 0.0762729ZM14.3393 14.1484C14.7982 14.3089 15.112 14.5105 15.488 14.8864C16.4383 15.8363 16.5954 17.3766 15.8559 18.4926C15.6352 18.8257 15.0929 19.3222 14.7726 19.4844C13.9142 19.9192 13.004 19.9296 12.1572 19.5142C11.6616 19.2711 11.1634 18.8228 10.9117 18.3934C10.5455 17.7688 10.4159 16.9469 10.5762 16.2669C10.82 15.2328 11.7 14.3338 12.7218 14.0748C13.1464 13.9672 13.9222 14.0025 14.3393 14.1484ZM9.13848 21.1421C10.4544 22.4573 10.5507 22.5826 10.4752 22.8831C10.432 23.0552 10.2045 23.2752 10.043 23.3012C9.74763 23.3487 9.59199 23.2288 8.37582 22.0172C7.70408 21.3479 7.11703 20.7297 7.07124 20.6433C6.87988 20.2823 7.1777 19.8433 7.61393 19.8433C7.83456 19.8433 7.86366 19.8681 9.13848 21.1421Z" fill="#B70106"/>
</svg>
