<svg width="26" height="26" viewBox="0 0 26 26" fill="none" xmlns="http://www.w3.org/2000/svg">
<path fill-rule="evenodd" clip-rule="evenodd" d="M11.8188 0.0467712C10.8876 0.133607 9.8531 0.349072 8.90054 0.654673L8.3944 0.817021L8.59585 0.917822C9.64642 1.44341 10.9585 2.21234 12.0635 2.94993L12.7398 3.40143L13.063 3.11761C13.4664 2.76341 14.0094 2.15739 14.1339 1.92238C14.2118 1.77526 14.2313 1.59941 14.2471 0.901927L14.2663 0.0592126L13.8728 0.0259509C13.3776 -0.0158928 12.383 -0.00583816 11.8188 0.0467712ZM15.5756 0.789091C15.5739 1.74469 15.4389 2.34706 15.1237 2.80511C15.0363 2.93211 14.7103 3.30078 14.3992 3.62441C13.9227 4.12003 13.8449 4.22307 13.9053 4.27807C13.9447 4.31397 14.1484 4.4818 14.3579 4.65105C14.5674 4.82031 14.9119 5.10793 15.1234 5.29024L15.508 5.62174L16.3168 5.13972C17.2582 4.57859 18.4761 3.97252 19.0529 3.77818C19.4483 3.64498 20.5828 3.35867 21.1876 3.23954L21.4919 3.17962L21.2891 3.00153C20.6778 2.46447 19.6894 1.81929 18.7918 1.3713C17.8796 0.916095 17.0665 0.616435 16.0845 0.37365C15.9029 0.328759 15.7144 0.280263 15.6655 0.265892C15.5848 0.242127 15.5765 0.290064 15.5756 0.789091ZM6.33258 1.83417C4.44794 2.9903 2.95974 4.4816 1.84342 6.33262C1.50877 6.88751 1.13827 7.61028 1.17148 7.64349C1.18418 7.65619 1.46556 7.57514 1.79675 7.46332C2.69009 7.16173 3.58791 6.94438 5.36962 6.59831C7.37055 6.20968 7.83337 6.10914 8.33133 5.95491C9.22783 5.67719 10.2116 5.20218 11.1535 4.59215L11.6815 4.25024L11.1281 3.89142C10.0673 3.20369 9.14561 2.67592 8.08642 2.14982C7.49989 1.85849 6.96288 1.60845 6.89306 1.59418C6.80023 1.57518 6.64961 1.63968 6.33258 1.83417ZM22.5083 4.34408C21.4613 4.48007 19.9384 4.82691 19.2736 5.08076C18.7421 5.28374 17.856 5.73655 17.0847 6.19932L16.4845 6.55941L16.7334 6.81804C17.1612 7.26253 17.6744 7.87261 17.9812 8.30141L18.2762 8.71365L18.65 8.59498C19.4432 8.3431 20.0252 8.25058 20.8325 8.24814C21.6998 8.2455 21.9022 8.29019 22.6606 8.65165C23.4608 9.03307 24.5288 9.88589 25.404 10.8423C25.8044 11.2798 25.8904 11.3528 25.8662 11.2341C25.8497 11.154 25.8118 10.9284 25.7819 10.7329C25.4782 8.74707 24.4437 6.48598 23.0576 4.77882C22.8478 4.52044 22.6727 4.3125 22.6684 4.31671C22.6641 4.32087 22.5921 4.33321 22.5083 4.34408ZM12.0474 5.55521C10.8973 6.3308 9.6421 6.93057 8.44021 7.27888C8.19397 7.35023 7.22527 7.55681 6.28749 7.73799C3.32202 8.31086 2.18843 8.61895 1.06911 9.15621C0.436931 9.45968 0.512188 9.36198 0.323841 10.1235C0.0993368 11.0312 -0.0403624 12.5252 0.0104188 13.4751C0.116044 15.4518 0.521024 17.0535 1.33292 18.7056C1.65725 19.3656 2.24713 20.356 2.31584 20.356C2.3359 20.356 2.39333 20.2017 2.4435 20.0132C2.5927 19.4527 2.96599 18.5535 3.39438 17.7227C5.20036 14.2201 9.18613 10.0608 14.0289 6.62482L14.3795 6.37614L14.1529 6.17327C13.8412 5.89423 12.8158 5.07025 12.7841 5.0733C12.7699 5.07467 12.4384 5.29156 12.0474 5.55521ZM14.8878 7.62531C11.978 9.67819 9.29029 12.0728 7.29606 14.3892C5.11724 16.9199 3.77316 19.3778 3.44135 21.4381L3.39083 21.7516L3.73279 22.0989C5.57868 23.9741 8.0335 25.2846 10.593 25.7613C11.2106 25.8763 11.1922 25.8815 11.3421 25.5483C12.1227 23.813 12.8176 21.4221 14.0027 16.395C14.5465 14.0882 14.8017 13.1259 15.0671 12.3819C15.5071 11.1486 15.921 10.453 16.6297 9.75589L17.1068 9.28662L16.8657 8.96878C16.4386 8.40546 15.4505 7.30519 15.3718 7.30519C15.3551 7.30519 15.1373 7.44925 14.8878 7.62531ZM20.0962 9.58694C19.5526 9.68104 19.1367 9.78463 19.0673 9.84318C19.0461 9.86111 19.2094 10.235 19.4303 10.674C20.3444 12.4906 21.0342 14.508 21.5446 16.8576C21.8439 18.2352 22.1122 20.0367 22.2018 21.27C22.219 21.5074 22.2453 21.785 22.2601 21.887L22.287 22.0722L22.5774 21.76C24.5303 19.6605 25.7088 16.9218 25.9575 13.9052L25.989 13.5227L25.4428 12.8642C24.6741 11.9371 23.6117 10.8637 23.0251 10.4213C21.9272 9.59324 21.2214 9.39219 20.0962 9.58694ZM17.5023 10.6909C16.8267 11.3228 16.3188 12.4508 15.8136 14.4417C15.6862 14.9435 15.3741 16.2338 15.1199 17.3091C14.0986 21.6288 13.3553 24.2019 12.7012 25.6816C12.6348 25.8317 12.5806 25.9666 12.5806 25.9814C12.5806 26.0287 14.1933 25.9411 14.7434 25.8639C16.881 25.5639 18.7506 24.8209 20.5449 23.5586L21.019 23.2251L20.9849 22.5142C20.8145 18.9683 20.0121 15.2854 18.7665 12.3325C18.5051 11.7127 17.8574 10.4536 17.8 10.4536C17.7757 10.4536 17.6418 10.5604 17.5023 10.6909Z" fill="#B70106"/>
</svg>
