<svg width="25" height="25" viewBox="0 0 25 25" fill="none" xmlns="http://www.w3.org/2000/svg">
<path fill-rule="evenodd" clip-rule="evenodd" d="M22.2883 0.00900538C22.2615 0.0197516 21.47 0.208837 20.5294 0.429183C19.5889 0.649481 18.8017 0.845844 18.7801 0.865529C18.75 0.892981 21.8478 5.5355 22.0177 5.71765C22.0379 5.73934 22.6018 5.63163 23.2707 5.47835C23.9397 5.32502 24.5359 5.18942 24.5957 5.17702C24.7445 5.1461 24.9387 4.94236 24.9744 4.7798C25.0114 4.61142 24.1214 1.20174 23.9438 0.831483C23.7191 0.362996 23.2074 0.0353337 22.6548 0.00617228C22.4801 -0.00305971 22.3152 -0.0017897 22.2883 0.00900538ZM15.5214 1.61044C14.4062 1.87851 13.4862 2.10496 13.477 2.1137C13.456 2.13363 16.9753 6.81308 17.0426 6.8546C17.0923 6.88538 20.8464 6.0543 20.9009 6.00042C20.9363 5.96555 17.6655 1.14728 17.5968 1.13296C17.5705 1.12754 16.6366 1.34237 15.5214 1.61044ZM10.3519 2.83854C9.32258 3.08502 8.48044 3.30346 8.48054 3.32402C8.48064 3.35099 11.5784 7.94852 11.692 8.09032C11.7069 8.10888 15.8728 7.17084 15.9045 7.14182C15.9396 7.10968 12.3386 2.38134 12.2825 2.38578C12.25 2.38837 11.3812 2.59211 10.3519 2.83854ZM5.23661 4.05174C4.10797 4.32118 3.17824 4.54724 3.17052 4.55408C3.15479 4.56805 6.26563 9.16216 6.35313 9.25419C6.39671 9.30001 6.86708 9.20891 8.46129 8.84588C9.58993 8.5889 10.5297 8.36357 10.5497 8.34516C10.5874 8.31043 7.37663 3.55018 7.32049 3.55761C7.303 3.5599 6.36525 3.78225 5.23661 4.05174ZM1.42562 4.96385C0.838634 5.12348 0.706227 5.19094 0.438578 5.46673C0.19272 5.72 0.0468769 6.03095 0.00539581 6.39036C-0.0214277 6.62263 0.0384243 6.90618 0.492567 8.69836L1.01032 10.7416V12.1298V13.5181L2.24401 13.5176L3.47769 13.517L4.25636 11.5637C4.86768 10.0302 5.05344 9.61038 5.12072 9.61038C5.16787 9.61038 5.21892 9.59015 5.23422 9.56539C5.27887 9.49319 2.08375 4.82283 1.99273 4.82718C1.94954 4.82923 1.69435 4.89073 1.42562 4.96385ZM5.44148 11.4057C4.9929 12.5275 4.62588 13.4619 4.62588 13.4822C4.62588 13.5026 5.54261 13.5135 6.66309 13.5064L8.70026 13.4937L9.52133 11.4429C9.97289 10.315 10.3424 9.38627 10.3424 9.37914C10.3424 9.37201 9.42318 9.36615 8.29972 9.36615H6.25708L5.44148 11.4057ZM10.6452 11.4421L9.8141 13.5181H11.8564H13.8988L14.73 11.4421L15.5611 9.36615H13.5187H11.4763L10.6452 11.4421ZM16.6772 9.40278C16.6609 9.42911 15.3827 12.6071 15.0465 13.457C15.0274 13.5053 15.4516 13.5181 17.0702 13.5181H19.1181L19.9337 11.4785C20.3823 10.3568 20.7493 9.42256 20.7493 9.40254C20.7493 9.35481 16.7066 9.35506 16.6772 9.40278ZM21.1052 11.3573C20.6693 12.4517 20.2988 13.3856 20.2816 13.4326C20.252 13.5133 20.384 13.5181 22.6251 13.5181H25V11.6595C25 10.1061 24.988 9.77773 24.927 9.65976C24.7761 9.368 24.7653 9.3661 23.2668 9.36678L21.8975 9.36742L21.1052 11.3573ZM1.01106 18.6348C1.01184 23.0747 1.00695 22.9932 1.30958 23.5926C1.62907 24.2254 2.38492 24.7952 3.10143 24.9435C3.4625 25.0182 22.4658 25.0192 22.8779 24.9445C23.8692 24.7648 24.714 23.9303 24.9264 22.9211C24.9863 22.6362 24.9984 21.9124 24.9992 18.5859L25 14.5927H13.0052H1.01032L1.01106 18.6348Z" fill="#B70106"/>
</svg>
