<svg width="36" height="41" viewBox="0 0 36 41" fill="none" xmlns="http://www.w3.org/2000/svg">
<path fill-rule="evenodd" clip-rule="evenodd" d="M16.0816 1.92449C15.0546 2.98298 14.1684 3.84947 14.1123 3.85003C14.0564 3.85059 12.9436 3.50528 11.6396 3.08263C10.229 2.62547 9.2488 2.34619 9.21975 2.39328C9.19293 2.43677 8.79543 3.66245 8.33645 5.11688L7.50198 7.76144L5.17491 8.25454C3.89499 8.52572 2.80158 8.747 2.74522 8.74636C2.68879 8.74571 2.62444 8.79257 2.60226 8.85058C2.58009 8.9085 2.85272 10.1611 3.20812 11.634L3.85425 14.3121L3.63116 14.5271C3.50845 14.6452 2.64125 15.4355 1.70408 16.2832L0 17.8244L1.30385 19.1894C3.31779 21.2981 3.84833 21.8809 3.84833 21.9841C3.84833 22.0365 3.50445 23.1452 3.08422 24.4479C2.66398 25.7506 2.33627 26.8326 2.35605 26.8524C2.37582 26.8722 3.59314 27.2698 5.06125 27.7358C6.52935 28.202 7.73971 28.5908 7.751 28.5999C7.76229 28.6091 8.02876 29.6964 8.34317 31.0163C8.65759 32.3362 8.94199 33.4468 8.97505 33.4843C9.00819 33.5219 9.23696 33.4947 9.4835 33.4241C9.73003 33.3535 10.1299 33.239 10.372 33.1697L10.8122 33.0437V30.3357V27.6277L10.1482 27.0609C8.15427 25.3592 6.74139 22.8966 6.19757 20.1751C5.97904 19.0814 6.00026 16.8498 6.23991 15.7252C6.69849 13.5727 7.63766 11.6658 8.98385 10.1535C10.8146 8.09713 12.9968 6.82708 15.695 6.24757C16.9072 5.98722 19.1254 5.98722 20.3376 6.24757C25.2005 7.29193 28.7555 10.8551 29.7934 15.7252C30.0314 16.8416 30.0515 19.0737 29.8336 20.1751C29.2958 22.8934 27.8264 25.4401 25.8327 27.1092L25.2203 27.6218V30.4044V33.1869L25.9365 33.4018C26.3304 33.52 26.7009 33.6167 26.76 33.6167C26.8307 33.6167 27.15 32.7183 27.6961 30.9829L28.525 28.3493L30.9349 27.8417C32.2605 27.5626 33.3764 27.3063 33.4149 27.2723C33.4537 27.2379 33.1932 26.0022 32.8297 24.4965L32.1744 21.7826L32.6202 21.3815C32.8654 21.1609 33.7291 20.3846 34.5398 19.6565C35.3503 18.9284 36.0075 18.3103 35.9999 18.2829C35.9925 18.2555 35.1399 17.3426 34.1053 16.2544C33.0708 15.1662 32.2132 14.2257 32.1996 14.1645C32.1861 14.1033 32.5213 12.9797 32.9446 11.6675C33.4417 10.1269 33.6843 9.2632 33.6296 9.22934C33.583 9.20046 32.3613 8.8026 30.9148 8.34512L28.2849 7.51345L27.7804 5.10059C27.5031 3.77349 27.2489 2.65652 27.2156 2.61833C27.1823 2.58014 25.9461 2.84193 24.4686 3.2C22.9911 3.55807 21.7696 3.85108 21.7542 3.85108C21.7388 3.85108 20.9077 2.98458 19.9073 1.92554C18.907 0.866492 18.0571 0 18.0188 0C17.9804 0 17.1087 0.866011 16.0816 1.92449ZM17.0558 8.46081C16.9897 8.47686 16.6655 8.53382 16.3354 8.58742C13.466 9.05284 10.7822 11.0638 9.43259 13.7596C8.72291 15.177 8.45748 16.3301 8.45364 18.0118C8.45067 19.3196 8.53976 19.9265 8.89725 21.0328C9.67696 23.4461 11.4542 25.5058 13.7616 26.6705C14.4404 27.0131 15.4893 27.3682 16.2953 27.5282C17.1221 27.6924 19.0878 27.6705 19.9374 27.4875C23.3265 26.7581 26.0848 24.2846 27.1353 21.0328C27.4879 19.9416 27.5817 19.3156 27.5817 18.0519C27.5817 17.3836 27.5345 16.6496 27.4707 16.327C26.7113 12.4845 23.8597 9.51713 20.0975 8.65465C19.4771 8.5124 17.3905 8.37946 17.0558 8.46081ZM19.0568 13.6391C19.9912 15.5171 20.0701 15.6474 20.2962 15.6869C20.6508 15.7488 24.4265 16.2864 24.5309 16.2898C24.5799 16.2914 23.8722 17.0226 22.9584 17.9145L21.2966 19.5362L21.6814 21.7425C21.893 22.956 22.0411 23.9597 22.0105 23.9729C21.98 23.986 21.0702 23.5289 19.9888 22.9568L18.0225 21.9168L16.0518 22.9575C14.968 23.5298 14.0554 23.987 14.0238 23.9735C13.9923 23.96 14.1397 22.956 14.3515 21.7425L14.7365 19.5362L13.0746 17.9141C12.1604 17.0219 11.4688 16.2909 11.5375 16.2894C11.654 16.287 15.2018 15.7771 15.7364 15.6859C15.9627 15.6473 16.0404 15.519 16.9758 13.6391C17.5247 12.536 17.9928 11.6335 18.0163 11.6335C18.0397 11.6335 18.5079 12.536 19.0568 13.6391ZM17.77 17.4284C17.5785 17.8427 17.5702 17.8489 17.1108 17.9299L16.6455 18.0118L16.976 18.3327C17.2912 18.6387 17.3043 18.6704 17.2567 19.0147C17.2292 19.2133 17.1881 19.4398 17.1652 19.5182C17.1295 19.6409 17.1858 19.6302 17.57 19.4414L18.0163 19.2219L18.4626 19.4414C18.8473 19.6305 18.9034 19.641 18.8687 19.5182C18.8465 19.4398 18.804 19.2185 18.7741 19.0263C18.7224 18.6938 18.7361 18.6603 19.0588 18.3308L19.3977 17.9846L19.0072 17.9321C18.4395 17.8557 18.4402 17.8562 18.2505 17.4141C18.1549 17.1913 18.0513 17.0089 18.0203 17.0089C17.9892 17.0089 17.8766 17.1977 17.77 17.4284ZM13.2136 35.0197V41L15.6149 39.1927L18.0163 37.3854L20.4176 39.1927L22.819 41V35.0197V29.0394L22.5989 29.1525C22.2289 29.3426 20.8927 29.746 20.1346 29.8964C19.1372 30.0944 16.8981 30.0928 15.8951 29.8934C15.1309 29.7415 13.801 29.3412 13.4337 29.1525L13.2136 29.0394V35.0197Z" fill="#B70106"/>
</svg>
