<svg width="34" height="30" viewBox="0 0 34 30" fill="none" xmlns="http://www.w3.org/2000/svg">
<path fill-rule="evenodd" clip-rule="evenodd" d="M7.36946 0.0565638C4.67687 0.369643 2.22296 2.05905 0.948391 4.47709C0.258443 5.7861 -0.00112749 6.85699 3.67934e-06 8.39036C0.00120139 9.91435 0.267825 11.0125 0.951985 12.3103C1.44398 13.2439 1.87555 13.7631 3.52061 15.4012L5.02187 16.8961L9.2124 12.7112L13.4029 8.52626L15.1533 10.2664C17.2423 12.3432 17.2948 12.3778 18.3627 12.3778C18.9612 12.3778 19.0649 12.359 19.3941 12.1907C19.8966 11.9339 20.3453 11.4756 20.5702 10.9895C20.7324 10.6391 20.7581 10.5014 20.7581 9.98533C20.7581 9.44749 20.736 9.3403 20.5392 8.92202C20.3337 8.48579 20.1144 8.25173 17.0126 5.16074C14.1037 2.26201 13.6237 1.81117 13.031 1.42106C11.3333 0.303652 9.35187 -0.17391 7.36946 0.0565638ZM24.7264 0.786928C23.4276 0.930542 22.1478 1.39494 20.9816 2.14591C20.633 2.37034 19.4666 3.3327 18.7974 3.9481C18.7131 4.02552 18.9169 4.25612 20.2711 5.61604C21.2033 6.55222 21.9491 7.36034 22.1044 7.60271C22.6812 8.50274 22.9191 9.82178 22.6959 10.8825C22.5285 11.6781 22.0719 12.5234 21.5014 13.0937C20.6245 13.9704 19.7731 14.3416 18.5273 14.3902C17.6055 14.4261 17.1595 14.3322 16.3333 13.928C15.8212 13.6776 15.6572 13.5426 14.6002 12.5018L13.4328 11.3522L9.63393 15.1546C6.01285 18.7791 5.82807 18.9757 5.68654 19.3558C5.49517 19.87 5.47814 20.5541 5.64475 21.0369C5.80651 21.5055 6.37163 22.1146 6.8728 22.3605C7.21335 22.5275 7.31948 22.5457 7.94928 22.5457C8.58121 22.5457 8.68075 22.5285 8.99129 22.3649L9.33457 22.1841L9.10614 22.5629C8.98051 22.7714 8.84524 23.062 8.80544 23.209C8.69745 23.6085 8.76439 24.4804 8.93194 24.8552C9.14027 25.3214 9.67379 25.8504 10.1636 26.0763C10.5225 26.2419 10.6573 26.2673 11.1764 26.2673C11.6877 26.2673 11.8313 26.2411 12.1579 26.0882C12.3684 25.9897 12.5405 25.9356 12.5405 25.968C12.5405 26.0004 12.51 26.0457 12.4727 26.0688C12.3435 26.1485 12.0867 26.7388 12.0085 27.1363C11.6769 28.8195 13.3269 30.3564 15.0047 29.9271C15.5673 29.7832 15.841 29.5976 16.7686 28.7307L17.5402 28.0097L16.5128 26.9724C15.4286 25.8777 15.2509 25.6464 15.0012 25.0046C14.7784 24.4321 14.7784 23.3841 15.0012 22.8116C15.4769 21.5891 16.4482 20.8116 17.689 20.6599L18.0284 20.6185L18.1127 20.1537C18.2149 19.5905 18.555 18.8618 18.9012 18.4645C19.3975 17.895 20.4085 17.3953 21.0646 17.3953C21.3038 17.3953 21.3237 17.3811 21.3237 17.2099C21.3237 16.9291 21.5038 16.297 21.6949 15.9073C22.072 15.1382 22.8119 14.5223 23.6729 14.2611C24.051 14.1464 24.251 14.1273 24.8153 14.1525C25.4336 14.1799 25.5492 14.2065 26.0189 14.4293C26.491 14.6531 26.6592 14.7952 27.8536 15.9786L29.1685 17.2815L30.2199 16.3158C32.0434 14.641 32.502 14.1043 33.0856 12.9628C33.4623 12.226 33.6965 11.567 33.8734 10.7469C34.0424 9.96287 34.0422 8.27871 33.8729 7.49319C33.0425 3.6408 29.8784 0.940311 25.9815 0.758085C25.5972 0.740142 25.0324 0.753101 24.7264 0.786928ZM24.0186 16.257C23.6129 16.5085 23.3195 16.9791 23.3203 17.3766C23.3214 17.917 23.4084 18.034 25.0071 19.6437C25.8541 20.4965 26.6668 21.2641 26.8132 21.3496C27.474 21.7354 28.2731 21.5009 28.6119 20.8218C28.8007 20.4435 28.8206 20.0892 28.6729 19.7358C28.545 19.4296 25.594 16.446 25.2356 16.2604C24.9057 16.0897 24.2911 16.0879 24.0186 16.257ZM21.2239 19.3687C21.1507 19.3827 21.024 19.4084 20.9423 19.4258C20.5575 19.5077 20.0637 20.1762 20.0613 20.6185C20.0583 21.1699 20.1424 21.2845 21.7134 22.8698C22.5421 23.7059 23.3532 24.476 23.5159 24.5811C24.3095 25.0934 25.4108 24.5759 25.5001 23.6489C25.5592 23.0347 25.4927 22.9404 23.7934 21.2276C22.9291 20.3565 22.1172 19.5907 21.9891 19.526C21.727 19.3934 21.4222 19.3308 21.2239 19.3687ZM17.9635 22.6118C17.9269 22.6239 17.8152 22.6518 17.7152 22.6738C17.2824 22.769 16.802 23.4184 16.802 23.9081C16.802 24.3951 17.0195 24.6849 18.5164 26.1922C19.3102 26.9915 20.0928 27.7317 20.2555 27.837C21.0483 28.3502 22.1504 27.8326 22.2396 26.9053C22.2987 26.2911 22.2323 26.1968 20.533 24.484C19.6687 23.6129 18.8568 22.8469 18.7287 22.7817C18.4929 22.662 18.0854 22.5714 17.9635 22.6118Z" fill="#B70106"/>
</svg>
