<svg width="31" height="26" viewBox="0 0 31 26" fill="none" xmlns="http://www.w3.org/2000/svg">
<path fill-rule="evenodd" clip-rule="evenodd" d="M1.99733 8.04384C1.80197 8.26428 1.7666 8.5797 1.88701 9.0287C2.13483 9.95321 1.69898 10.9158 0.854875 11.3083C0.445944 11.4984 0.244002 11.7253 0.209119 12.0337C0.181796 12.2758 0.214586 12.3723 2.14788 17.74C4.08118 23.1077 4.11745 23.2029 4.29282 23.372C4.51753 23.5885 4.81685 23.6333 5.26156 23.5168C6.15721 23.2823 7.10466 23.7505 7.50538 24.6255C7.69947 25.0494 7.92493 25.2616 8.22625 25.304C8.45333 25.336 8.56393 25.3029 10.21 24.71L11.9532 24.0821L11.627 23.1764C11.2632 22.1666 11.2427 21.9886 11.454 21.6726C11.6181 21.4273 12.0548 21.27 12.3376 21.3544C12.7018 21.463 12.7996 21.6132 13.1633 22.6231L13.4895 23.5288L20.9171 20.8536C28.2602 18.2088 28.3466 18.1763 28.5084 17.999C28.7146 17.773 28.7518 17.4666 28.6287 17.0076C28.3809 16.0831 28.8167 15.1205 29.6608 14.728C30.0697 14.5379 30.2717 14.311 30.3066 14.0026C30.3339 13.7606 30.3011 13.6641 28.3678 8.29633C26.4345 2.92861 26.3982 2.83336 26.2229 2.66434C25.9993 2.44899 25.6991 2.40298 25.2629 2.51726C24.3657 2.75226 23.4114 2.28626 23.0142 1.4193C22.8164 0.987185 22.5924 0.774933 22.2894 0.73229C22.0517 0.698833 21.9644 0.728897 14.6213 3.37365L7.19373 6.04886L7.51994 6.95459C7.88367 7.96445 7.90416 8.14246 7.69287 8.4584C7.52876 8.70373 7.09213 8.86099 6.80928 8.77664C6.44506 8.66798 6.34734 8.51779 5.98362 7.50793L5.6574 6.6022L3.90427 7.23626C2.26008 7.83096 2.14161 7.88111 1.99733 8.04384ZM16.9924 7.13204C17.1679 7.17186 17.3721 7.34374 18.1872 8.13787C18.7279 8.66467 19.1786 9.09269 19.1887 9.08906C19.2428 9.06956 21.483 8.62701 21.6148 8.60977C21.8513 8.57887 22.2163 8.75404 22.3636 8.96924C22.6103 9.32961 22.5802 9.4733 21.972 10.8375L21.4148 12.0872L22.0824 13.2829L22.75 14.4786L22.726 14.7259C22.7128 14.8619 22.6415 15.0582 22.5676 15.1622C22.4552 15.3203 22.3855 15.3639 22.1426 15.4278C21.8997 15.4917 21.6509 15.4724 20.6286 15.3104L19.4054 15.1165L18.5801 16.0478C17.8936 16.8225 17.709 17.0005 17.4822 17.1059C17.2542 17.212 17.1732 17.2229 16.9856 17.1727C16.8623 17.1397 16.6822 17.0339 16.5853 16.9376L16.4092 16.7624L16.161 15.4156L15.9129 14.0688L14.6868 13.4614C13.3485 12.7983 13.2336 12.7068 13.1939 12.2719C13.1689 11.9979 13.348 11.6312 13.5688 11.5043C13.7629 11.3928 15.676 10.3542 15.7098 10.342C15.7234 10.3372 15.8003 9.71977 15.8809 8.96998C15.9989 7.87206 16.0521 7.57361 16.1543 7.43633C16.3253 7.20679 16.7084 7.06765 16.9924 7.13204ZM8.44818 10.6398C8.85346 10.7472 8.92872 10.8665 9.37837 12.1148C9.73227 13.097 9.77598 13.2534 9.75046 13.4449C9.70388 13.7941 9.56551 13.9613 9.2205 14.0856C8.8755 14.2098 8.66226 14.1692 8.40372 13.9299C8.26198 13.7987 8.19595 13.6504 7.84225 12.668C7.49867 11.7139 7.44468 11.5239 7.46453 11.3382C7.49771 11.0273 7.69591 10.7749 7.98997 10.669C8.15517 10.6095 8.29916 10.6003 8.44818 10.6398ZM17.3947 10.4084C17.3135 11.3681 17.2621 11.4422 16.3503 11.9128L15.8754 12.1579L16.5428 12.4983C17.0338 12.7487 17.2359 12.8831 17.3077 13.007C17.39 13.1492 17.5282 13.7494 17.6283 14.3994L17.6531 14.561L18.1346 14.0225C18.4516 13.6681 18.6762 13.4625 18.792 13.4208C18.9077 13.3791 19.2111 13.3941 19.6786 13.4647C20.3288 13.5627 20.3833 13.5622 20.3168 13.4592C20.2769 13.3973 20.1098 13.0983 19.9455 12.7948C19.6633 12.2737 19.6477 12.2307 19.6656 12.0203C19.6759 11.8978 19.8086 11.5303 19.9604 11.2036C20.1122 10.8769 20.2282 10.6068 20.2183 10.6033C20.2083 10.5999 19.9708 10.6469 19.6904 10.7077C18.699 10.9226 18.6121 10.898 17.9394 10.2122C17.6949 9.96297 17.4843 9.76278 17.4715 9.76739C17.4587 9.772 17.4241 10.0605 17.3947 10.4084ZM10.414 15.9981C10.789 16.1189 10.8667 16.2468 11.3046 17.463C11.7542 18.7113 11.7723 18.8512 11.5285 19.1923C11.2548 19.5754 10.6736 19.6188 10.324 19.2821C10.1848 19.148 10.1197 18.995 9.76107 17.9601C9.36669 16.8219 9.35714 16.7835 9.41414 16.5674C9.44638 16.4452 9.53222 16.286 9.60487 16.2135C9.77842 16.0405 10.1986 15.9286 10.414 15.9981Z" fill="#B70106"/>
</svg>
