<svg width="27" height="27" viewBox="0 0 27 27" fill="none" xmlns="http://www.w3.org/2000/svg">
<path fill-rule="evenodd" clip-rule="evenodd" d="M24.0441 0.0719229C23.1431 0.290176 22.4152 1.09252 22.2703 2.02733C22.0697 3.32122 23.0113 4.5786 24.2968 4.73353C25.6154 4.89241 26.7713 4.0186 26.975 2.70887C27.0846 2.00435 26.8289 1.24274 26.3057 0.714799C25.6963 0.0999705 24.8829 -0.131224 24.0441 0.0719229ZM17.0109 0.54139C16.9495 0.584438 16.6959 0.995592 16.4473 1.45508L15.9953 2.29053L15.1883 2.73C14.7444 2.97165 14.3397 3.20596 14.2889 3.25065C14.1793 3.34699 14.1682 3.54401 14.267 3.64184C14.3057 3.68018 14.7079 3.91365 15.1606 4.16058L15.9839 4.60956L16.4717 5.49567C16.9751 6.4101 17.0678 6.51088 17.292 6.38712C17.3455 6.35759 17.5997 5.94559 17.8568 5.47148L18.3244 4.60956L19.2025 4.13174C20.0234 3.6851 20.0817 3.64326 20.0968 3.49082C20.1174 3.28202 20.0644 3.24104 19.0904 2.71146L18.3194 2.29233L17.8863 1.49659C17.3169 0.450486 17.2479 0.37527 17.0109 0.54139ZM9.12951 1.08977C9.0284 1.14391 8.90544 1.25679 8.85626 1.34067C8.67208 1.65474 7.91659 3.89564 7.91659 4.12773C7.91659 4.53313 8.28003 4.89991 8.68179 4.89991C8.88623 4.89991 9.17574 4.75111 9.29886 4.58278C9.44947 4.37683 10.2914 1.96743 10.2911 1.74305C10.2906 1.17724 9.64473 0.814048 9.12951 1.08977ZM12.8508 6.14087C12.2997 6.33763 12.15 7.01642 12.566 7.4327C13.0445 7.91172 13.8799 7.5592 13.8799 6.87824C13.8799 6.32986 13.3617 5.95853 12.8508 6.14087ZM20.6463 6.5197C20.0982 6.79008 20.077 7.57552 20.6094 7.8878C20.8774 8.04499 21.0602 8.04985 21.3538 7.90766C21.5168 7.82864 21.6081 7.73726 21.6871 7.57404C21.8242 7.29061 21.8237 7.15682 21.6847 6.86931C21.4976 6.48251 21.0365 6.32727 20.6463 6.5197ZM6.91016 7.56047C6.38998 7.70086 5.95191 8.06591 5.73238 8.54198C5.56757 8.8993 5.5757 9.63324 5.74842 9.99723C5.93323 10.3866 16.7891 21.2523 17.1782 21.4373C17.3944 21.5402 17.5277 21.563 17.917 21.5638C18.359 21.5648 18.4152 21.5523 18.7262 21.3835C19.2479 21.1004 19.5833 20.6144 19.6606 20.0295C19.7036 19.7039 19.5864 19.1994 19.4008 18.9118C19.33 18.8022 16.7944 16.2366 13.7659 13.2104L8.25961 7.70831L7.89785 7.59829C7.49092 7.47453 7.26125 7.46576 6.91016 7.56047ZM26.0185 7.91209C25.6534 7.99803 25.5386 8.20562 25.2602 9.28426C25.1214 9.82165 24.9846 10.351 24.9562 10.4607L24.9046 10.66L24.4452 10.34C24.1926 10.1639 23.8499 9.92127 23.6836 9.80074C23.4278 9.61523 23.333 9.5781 23.0665 9.55877C22.5425 9.52084 22.1192 9.80079 21.964 10.2877C21.8995 10.4901 21.7972 11.5616 21.7963 12.044C21.796 12.2444 21.7743 12.3477 21.7326 12.3477C21.6978 12.3477 21.1688 12.0755 20.5569 11.7428C19.924 11.3987 19.3531 11.1233 19.2326 11.104C18.7827 11.032 18.2912 11.3066 18.0946 11.7398C18.0101 11.926 17.9984 12.108 17.9975 13.2457C17.9966 14.445 18.0042 14.5524 18.1014 14.7119C18.4229 15.2397 19.1807 15.2163 19.4606 14.6699C19.5662 14.4639 19.5793 14.3603 19.5793 13.7363C19.5793 13.3503 19.5876 13.0344 19.5978 13.0344C19.6079 13.0344 19.8395 13.1563 20.1123 13.3053C21.2989 13.9533 21.9581 14.2493 22.2115 14.2481C22.684 14.2458 23.1592 13.8957 23.2664 13.4708C23.2939 13.3615 23.3325 12.9037 23.3522 12.4534C23.3719 12.0031 23.3989 11.6237 23.4123 11.6103C23.4256 11.5968 23.4889 11.6197 23.5529 11.6611C24.1242 12.0305 24.8038 12.4107 24.9756 12.457C25.3931 12.5695 25.7859 12.4087 26.0997 11.997C26.2423 11.8099 26.3191 11.5646 26.649 10.2425C27.0721 8.54678 27.0782 8.46322 26.8022 8.14867C26.6717 7.99977 26.3503 7.84015 26.2287 7.86371C26.2142 7.86651 26.1196 7.88827 26.0185 7.91209ZM15.587 8.72199C14.915 8.98757 14.3129 9.25241 14.2491 9.31046C13.8607 9.66335 13.911 10.2317 14.3601 10.5646C14.6196 10.7569 14.8718 10.7053 16.2003 10.1883C16.8759 9.9255 17.4845 9.6737 17.5529 9.62886C17.9709 9.35477 17.9432 8.59839 17.5054 8.33127C17.1893 8.13827 16.9299 8.19109 15.587 8.72199ZM5.26819 14.3574L4.54932 15.9973L9.24086 18.3453C11.8212 19.6367 13.9502 20.6933 13.972 20.6933C13.9938 20.6933 12.2187 18.8988 10.0275 16.7054C7.83627 14.512 6.03076 12.7175 6.01524 12.7175C5.99978 12.7175 5.66356 13.4554 5.26819 14.3574ZM21.1243 15.9424C20.6019 16.0531 20.3578 16.5273 20.5727 17.0136C20.8295 17.5946 21.6201 17.6377 21.9544 17.0888C22.2955 16.5289 21.7714 15.8051 21.1243 15.9424ZM3.18673 19.0955C2.80661 19.9598 2.51071 20.6841 2.52913 20.7052C2.57926 20.7623 8.5107 23.4964 8.60263 23.5048C8.69329 23.5129 12.5092 21.8521 12.5051 21.8063C12.5023 21.776 3.95594 17.5187 3.90507 17.5222C3.89008 17.5233 3.56685 18.2312 3.18673 19.0955ZM0.90711 24.2983C0.407827 25.4386 -0.000369158 26.4351 2.50533e-07 26.5127C0.000369659 26.5904 0.0614804 26.7263 0.135784 26.8146C0.412471 27.1438 0.325449 27.1709 3.61002 25.7324C5.25368 25.0126 6.58043 24.4069 6.55832 24.3865C6.50581 24.3379 1.90873 22.2251 1.85554 22.2251C1.83316 22.2251 1.40634 23.1581 0.90711 24.2983Z" fill="#B70106"/>
</svg>
