<svg id="Layer_1" data-name="Layer 1" xmlns="http://www.w3.org/2000/svg" viewBox="0 0 148.85 171.62"><defs><style>.cls-1{fill:#1b1b1b;}.cls-2{fill:#010101;}.cls-3{fill:#1c1c1c;}.cls-4{fill:#f9f8f6;}.cls-5{fill:#f9e155;}.cls-6{fill:#1a1507;}.cls-7{fill:#f6bd00;}.cls-8{fill:#dec8a3;}.cls-9{fill:#f4bb00;}.cls-10{fill:#dc7041;}.cls-11{fill:#dd7042;}.cls-12{fill:#1f1c17;}</style></defs><path class="cls-1" d="M503,547.27c-21.14-7.69-36.86-21.36-45.73-42.25-5.84-13.76-7.54-28.06-4.31-42.8,1.1-.5,1.37-1.12.29-1.94,5.25-29.44,32-54.56,61.82-57.82.77.93,1.41.73,1.95-.23a43,43,0,0,1,16.92-.06c.86,1.32,1.86,1.41,3,.32,22.27,3.11,39.12,14.69,51.57,33.07,5.29,7.81,8.36,16.57,10.63,25.64a3.61,3.61,0,0,0,.68,3.06c0,1.65,0,3.3,0,4.95l-3.5.2A12.57,12.57,0,0,1,596,468c-4.3-40-42.07-68.38-81.85-61.61-33,5.63-56.64,32.38-58.87,66.7-2,31.08,19.47,61.52,50.27,70.59a16.49,16.49,0,0,1,11,9.13c2.77,5.52,6,10.82,9.39,16.92,3.93-7.05,7.36-13.1,10.68-19.21a11.5,11.5,0,0,1,6.93-6c30.8-9.18,47.94-30.09,52.84-61.51l3.4.35,0,4.86a1.93,1.93,0,0,0-.51,2.08q-9.91,42.66-51.22,57.24a1.86,1.86,0,0,0-2,.71c-3.4-.1-4.9,2.28-6.29,4.83-2.94,5.38-5.85,10.78-8.87,16.11-2.88,5.08-6.79,5.19-9.69.21-3.25-5.59-6.33-11.28-9.42-17-1.45-2.69-3.46-4.39-6.63-4.43A2.12,2.12,0,0,0,503,547.27Z" transform="translate(-451.36 -401.36)"/><path class="cls-2" d="M599.78,483.28l-3.4-.35.37-11.75,3.16,0A49.66,49.66,0,0,1,599.78,483.28Z" transform="translate(-451.36 -401.36)"/><path class="cls-3" d="M536.94,402.49c-1.12,1.09-2.12,1-3-.32A3.38,3.38,0,0,1,536.94,402.49Z" transform="translate(-451.36 -401.36)"/><path class="cls-3" d="M599.91,471.22l-3.16,0-.38-1.77,3.5-.2C599.89,469.88,599.9,470.55,599.91,471.22Z" transform="translate(-451.36 -401.36)"/><path class="cls-3" d="M517,402.23c-.54,1-1.18,1.16-1.95.23A1.6,1.6,0,0,1,517,402.23Z" transform="translate(-451.36 -401.36)"/><path class="cls-3" d="M453.27,460.28c1.08.82.81,1.44-.29,1.94Z" transform="translate(-451.36 -401.36)"/><path class="cls-4" d="M596.37,469.41l.38,1.77-.37,11.75c-4.9,31.42-22,52.33-52.84,61.51a11.5,11.5,0,0,0-6.93,6c-3.32,6.11-6.75,12.16-10.68,19.21-3.41-6.1-6.62-11.4-9.39-16.92a16.49,16.49,0,0,0-11-9.13c-30.8-9.07-52.29-39.51-50.27-70.59,2.23-34.32,25.85-61.07,58.87-66.7C554,399.59,591.72,428,596,468A12.57,12.57,0,0,0,596.37,469.41ZM525.92,415.1c-30.11-.81-59.53,23.57-59.49,59.45C466.47,508,492.7,534,526.11,534a59.13,59.13,0,0,0,59.17-59.37C585,441.12,559.36,415.13,525.92,415.1Z" transform="translate(-451.36 -401.36)"/><path class="cls-5" d="M525.92,415.1c33.44,0,59.11,26,59.36,59.5A59.13,59.13,0,0,1,526.11,534c-33.41.07-59.64-25.94-59.68-59.42C466.39,438.67,495.81,414.29,525.92,415.1Zm-.19,100.18c13.31,0,22.08-5.28,28-17.07,1.16-2.3,2.32-3.54,5.1-3.68,3.94-.19,5.6-3.09,6.11-6.71.18-1.3-.14-2.86.47-3.86,4.21-6.9-2-12.45-2.72-18.68-.23-2-2.8-5.1-3.39-8.11-2.07-10.69-8.82-17.29-19.61-19a9.69,9.69,0,0,1-4.92-1.93,14.45,14.45,0,0,0-18,.18,8.15,8.15,0,0,1-4,1.64c-12.38,2-19,8.87-20.82,21.3-.2,1.43,0,3-1.34,4.11-5.24,4.33-3.4,11.12-5.51,16.56-.88,2.26,2,4.3,1.81,7-.32,4.51,2.13,7.29,6.69,7.6,2.15.15,3.06,1,4,2.87C503.25,509.3,512.63,515.29,525.73,515.28Z" transform="translate(-451.36 -401.36)"/><path class="cls-6" d="M525.73,515.28c-13.1,0-22.48-6-28.08-17.76-.91-1.91-1.82-2.72-4-2.87-4.56-.31-7-3.09-6.69-7.6.19-2.74-2.69-4.78-1.81-7,2.11-5.44.27-12.23,5.51-16.56,1.38-1.14,1.14-2.68,1.34-4.11,1.83-12.43,8.44-19.27,20.82-21.3a8.15,8.15,0,0,0,4-1.64,14.45,14.45,0,0,1,18-.18,9.69,9.69,0,0,0,4.92,1.93c10.79,1.73,17.54,8.33,19.61,19,.59,3,3.16,6.08,3.39,8.11.7,6.23,6.93,11.78,2.72,18.68-.61,1-.29,2.56-.47,3.86-.51,3.62-2.17,6.52-6.11,6.71-2.78.14-3.94,1.38-5.1,3.68C547.81,510,539,515.24,525.73,515.28Zm-12-69.25c1.17-4.37-1.3-4.48-4.57-3.33-5.62,2-9.81,5.54-11.9,11.21-3.17,8.6-2.37,9.91,6.57,11.39.82.14,1.61.49,2.42.55,3,.23,6.29.89,5.83-4a2.07,2.07,0,0,1,2-2.41,1.63,1.63,0,0,1,1.83,1.87c-1.45,6.22,3.08,4.93,6.44,5.41,3.19.46,6.3-.2,9.44-.15,2.94,0,4.94-.35,4.17-4.05-.27-1.27-.21-2.92,1.61-3.06s2.05,1.36,2.25,2.72c.15,1-.07,2.61.43,2.86,4.68,2.36,9.16-.44,13.77-.75,2.73-.19,2-2.17,1.91-3.68-.61-8.12-4.19-14.21-12-17.33-5.34-2.13-5.82-1.78-5.72,3.83,0,1.47,1.05,3.78-1.47,4-2.32.21-2.07-2.12-2.41-3.65A20.28,20.28,0,0,1,534,445c-.55-6-2.19-7.61-8-7.65s-7.38,1.37-8.16,7.51c-.2,1.48-.47,2.95-.68,4.43-.16,1.08-.56,1.94-1.82,1.93-1.63,0-1.78-1.22-1.8-2.42A25.48,25.48,0,0,1,513.74,446Zm39.33,37a125.74,125.74,0,0,1-54.37.09c-.05,9.61,3,18.28,11.68,23.93,9.56,6.26,19.94,6.42,29.75.8C549.64,502.36,553.37,493.37,553.07,483ZM526,482c6.18.76,12.22-1.25,18.39-.88a6.79,6.79,0,0,0,5.43-2.14c2.63-2.82,5.79-5,8.81-7.3,1-.79,2.46-1.51,1.73-3.16-.85-1.92-2.43-1.14-3.87-.84-18.9,3.9-37.86,3.63-56.89,1.06-2.62-.35-6.42-3.63-7.85,0-1.21,3.07,3.44,4.24,5.62,6,3,2.43,5.21,6.54,9.74,6.38C513.46,480.87,519.66,482.74,526,482Zm31,2h.1c-.06,1.16-.2,2.32-.17,3.48s-1.6,3.22,1.14,3.39c2.06.13,3.09-1.41,2.94-3.23a12.86,12.86,0,0,1,1.74-7.06c1-1.9.53-4.4-1.71-5-2-.5-3.71,1.16-4,3.41A41.16,41.16,0,0,0,557,484Zm-62.14.12h.09a26.54,26.54,0,0,1,0-4c.37-2.28-1-3.3-2.63-4.29a1.68,1.68,0,0,0-2.56.42,4.21,4.21,0,0,0-.48,4.7,11.49,11.49,0,0,1,1.65,6.61c-.11,1.73.81,3.54,2.91,3.22,2.29-.35,1-2.37,1.11-3.68A23.07,23.07,0,0,0,494.82,484.14Z" transform="translate(-451.36 -401.36)"/><path class="cls-7" d="M513.74,446a25.48,25.48,0,0,0-.23,2.73c0,1.2.17,2.42,1.8,2.42,1.26,0,1.66-.85,1.82-1.93.21-1.48.48-2.95.68-4.43.78-6.14,2.29-7.54,8.16-7.51s7.5,1.6,8,7.65a20.28,20.28,0,0,0,.27,2.47c.34,1.53.09,3.86,2.41,3.65,2.52-.22,1.5-2.53,1.47-4-.1-5.61.38-6,5.72-3.83,7.84,3.12,11.42,9.21,12,17.33.11,1.51.82,3.49-1.91,3.68-4.61.31-9.09,3.11-13.77.75-.5-.25-.28-1.88-.43-2.86-.2-1.36-.52-2.86-2.25-2.72s-1.88,1.79-1.61,3.06c.77,3.7-1.23,4.09-4.17,4.05-3.14-.05-6.25.61-9.44.15-3.36-.48-7.89.81-6.44-5.41a1.63,1.63,0,0,0-1.83-1.87,2.07,2.07,0,0,0-2,2.41c.46,4.92-2.84,4.26-5.83,4-.81-.06-1.6-.41-2.42-.55-8.94-1.48-9.74-2.79-6.57-11.39,2.09-5.67,6.28-9.25,11.9-11.21C512.44,441.55,514.91,441.66,513.74,446Z" transform="translate(-451.36 -401.36)"/><path class="cls-8" d="M553.07,483c.3,10.39-3.43,19.38-12.94,24.82-9.81,5.62-20.19,5.46-29.75-.8-8.64-5.65-11.73-14.32-11.68-23.93A125.74,125.74,0,0,0,553.07,483ZM526,504.26a10.76,10.76,0,0,0,8.38-4.31c.8-1,1.23-2,.17-3.06a1.66,1.66,0,0,0-2.61.12c-4,4.24-7.88,4.44-11.86.06a1.74,1.74,0,0,0-2.62-.33c-1.14.94-.94,2.08-.11,3.06C519.54,502.41,522.21,504.23,526,504.26Z" transform="translate(-451.36 -401.36)"/><path class="cls-9" d="M526,482c-6.34.74-12.54-1.13-18.89-.9-4.53.16-6.72-4-9.74-6.38-2.18-1.75-6.83-2.92-5.62-6,1.43-3.62,5.23-.34,7.85,0,19,2.57,38,2.84,56.89-1.06,1.44-.3,3-1.08,3.87.84.73,1.65-.7,2.37-1.73,3.16-3,2.33-6.18,4.48-8.81,7.3a6.79,6.79,0,0,1-5.43,2.14C538.22,480.75,532.18,482.76,526,482Z" transform="translate(-451.36 -401.36)"/><path class="cls-10" d="M557,484a41.16,41.16,0,0,1,0-5c.29-2.25,2-3.91,4-3.41,2.24.56,2.67,3.06,1.71,5a12.86,12.86,0,0,0-1.74,7.06c.15,1.82-.88,3.36-2.94,3.23-2.74-.17-1.11-2.16-1.14-3.39s.11-2.32.17-3.48Z" transform="translate(-451.36 -401.36)"/><path class="cls-11" d="M494.82,484.14a23.07,23.07,0,0,1,.12,3c-.1,1.31,1.18,3.33-1.11,3.68-2.1.32-3-1.49-2.91-3.22a11.49,11.49,0,0,0-1.65-6.61,4.21,4.21,0,0,1,.48-4.7,1.68,1.68,0,0,1,2.56-.42c1.65,1,3,2,2.63,4.29a26.54,26.54,0,0,0,0,4Z" transform="translate(-451.36 -401.36)"/><path class="cls-12" d="M526,504.26c-3.76,0-6.43-1.85-8.65-4.46-.83-1-1-2.12.11-3.06a1.74,1.74,0,0,1,2.62.33c4,4.38,7.9,4.18,11.86-.06a1.66,1.66,0,0,1,2.61-.12c1.06,1.09.63,2.09-.17,3.06A10.76,10.76,0,0,1,526,504.26Z" transform="translate(-451.36 -401.36)"/></svg>